<mxfile host="app.diagrams.net" modified="2021-03-19T20:51:02.261Z" agent="5.0 (X11; Linux x86_64) AppleWebKit/537.36 (KHTML, like Gecko) Chrome/88.0.4324.192 Safari/537.36 OPR/74.0.3911.232" etag="YT9Ya-_XkY02QXegn4DN" version="14.4.8" type="github" pages="6">
  <diagram id="C5RBs43oDa-KdzZeNtuy" name="Page-1">
    <mxGraphModel dx="749" dy="459" grid="1" gridSize="10" guides="1" tooltips="1" connect="1" arrows="1" fold="1" page="1" pageScale="1" pageWidth="827" pageHeight="1169" math="0" shadow="0">
      <root>
        <mxCell id="WIyWlLk6GJQsqaUBKTNV-0" />
        <mxCell id="WIyWlLk6GJQsqaUBKTNV-1" parent="WIyWlLk6GJQsqaUBKTNV-0" />
        <mxCell id="H-xvVwIZo4uKMG5LaP1M-21" style="edgeStyle=orthogonalEdgeStyle;rounded=0;orthogonalLoop=1;jettySize=auto;html=1;startArrow=none;startFill=0;" parent="WIyWlLk6GJQsqaUBKTNV-1" source="H-xvVwIZo4uKMG5LaP1M-0" target="H-xvVwIZo4uKMG5LaP1M-4" edge="1">
          <mxGeometry relative="1" as="geometry" />
        </mxCell>
        <mxCell id="H-xvVwIZo4uKMG5LaP1M-22" style="edgeStyle=orthogonalEdgeStyle;rounded=0;orthogonalLoop=1;jettySize=auto;html=1;startArrow=none;startFill=0;" parent="WIyWlLk6GJQsqaUBKTNV-1" source="H-xvVwIZo4uKMG5LaP1M-0" target="H-xvVwIZo4uKMG5LaP1M-3" edge="1">
          <mxGeometry relative="1" as="geometry" />
        </mxCell>
        <mxCell id="H-xvVwIZo4uKMG5LaP1M-27" style="edgeStyle=orthogonalEdgeStyle;rounded=0;orthogonalLoop=1;jettySize=auto;html=1;startArrow=none;startFill=0;" parent="WIyWlLk6GJQsqaUBKTNV-1" source="H-xvVwIZo4uKMG5LaP1M-0" target="H-xvVwIZo4uKMG5LaP1M-24" edge="1">
          <mxGeometry relative="1" as="geometry">
            <Array as="points">
              <mxPoint x="120" y="10" />
              <mxPoint x="570" y="10" />
            </Array>
          </mxGeometry>
        </mxCell>
        <mxCell id="H-xvVwIZo4uKMG5LaP1M-0" value="login" style="rounded=1;whiteSpace=wrap;html=1;" parent="WIyWlLk6GJQsqaUBKTNV-1" vertex="1">
          <mxGeometry x="60" y="50" width="120" height="60" as="geometry" />
        </mxCell>
        <mxCell id="H-xvVwIZo4uKMG5LaP1M-9" style="edgeStyle=orthogonalEdgeStyle;rounded=0;orthogonalLoop=1;jettySize=auto;html=1;" parent="WIyWlLk6GJQsqaUBKTNV-1" source="H-xvVwIZo4uKMG5LaP1M-1" target="H-xvVwIZo4uKMG5LaP1M-8" edge="1">
          <mxGeometry relative="1" as="geometry" />
        </mxCell>
        <mxCell id="H-xvVwIZo4uKMG5LaP1M-1" value="cadastro de funcionários (criança)" style="rounded=1;whiteSpace=wrap;html=1;" parent="WIyWlLk6GJQsqaUBKTNV-1" vertex="1">
          <mxGeometry x="230" y="360" width="120" height="60" as="geometry" />
        </mxCell>
        <mxCell id="H-xvVwIZo4uKMG5LaP1M-25" style="edgeStyle=orthogonalEdgeStyle;rounded=0;orthogonalLoop=1;jettySize=auto;html=1;entryX=1;entryY=0.75;entryDx=0;entryDy=0;startArrow=none;startFill=0;" parent="WIyWlLk6GJQsqaUBKTNV-1" source="H-xvVwIZo4uKMG5LaP1M-2" target="H-xvVwIZo4uKMG5LaP1M-0" edge="1">
          <mxGeometry relative="1" as="geometry">
            <Array as="points">
              <mxPoint x="290" y="170" />
              <mxPoint x="290" y="95" />
            </Array>
          </mxGeometry>
        </mxCell>
        <mxCell id="H-xvVwIZo4uKMG5LaP1M-2" value="alterar senha" style="rounded=1;whiteSpace=wrap;html=1;" parent="WIyWlLk6GJQsqaUBKTNV-1" vertex="1">
          <mxGeometry x="400" y="170" width="120" height="60" as="geometry" />
        </mxCell>
        <mxCell id="H-xvVwIZo4uKMG5LaP1M-23" style="edgeStyle=orthogonalEdgeStyle;rounded=0;orthogonalLoop=1;jettySize=auto;html=1;startArrow=none;startFill=0;" parent="WIyWlLk6GJQsqaUBKTNV-1" source="H-xvVwIZo4uKMG5LaP1M-3" target="H-xvVwIZo4uKMG5LaP1M-2" edge="1">
          <mxGeometry relative="1" as="geometry" />
        </mxCell>
        <mxCell id="H-xvVwIZo4uKMG5LaP1M-3" value="esqueceu senha" style="rounded=1;whiteSpace=wrap;html=1;" parent="WIyWlLk6GJQsqaUBKTNV-1" vertex="1">
          <mxGeometry x="60" y="170" width="120" height="60" as="geometry" />
        </mxCell>
        <mxCell id="H-xvVwIZo4uKMG5LaP1M-26" style="edgeStyle=orthogonalEdgeStyle;rounded=0;orthogonalLoop=1;jettySize=auto;html=1;startArrow=none;startFill=0;" parent="WIyWlLk6GJQsqaUBKTNV-1" source="H-xvVwIZo4uKMG5LaP1M-4" target="H-xvVwIZo4uKMG5LaP1M-24" edge="1">
          <mxGeometry relative="1" as="geometry" />
        </mxCell>
        <mxCell id="H-xvVwIZo4uKMG5LaP1M-4" value="cadastro" style="rounded=1;whiteSpace=wrap;html=1;" parent="WIyWlLk6GJQsqaUBKTNV-1" vertex="1">
          <mxGeometry x="320" y="20" width="120" height="60" as="geometry" />
        </mxCell>
        <mxCell id="H-xvVwIZo4uKMG5LaP1M-10" style="edgeStyle=orthogonalEdgeStyle;rounded=0;orthogonalLoop=1;jettySize=auto;html=1;entryX=0.25;entryY=0;entryDx=0;entryDy=0;" parent="WIyWlLk6GJQsqaUBKTNV-1" source="H-xvVwIZo4uKMG5LaP1M-5" target="H-xvVwIZo4uKMG5LaP1M-8" edge="1">
          <mxGeometry relative="1" as="geometry" />
        </mxCell>
        <mxCell id="H-xvVwIZo4uKMG5LaP1M-5" value="cadastro dos supervisores (professor)" style="rounded=1;whiteSpace=wrap;html=1;" parent="WIyWlLk6GJQsqaUBKTNV-1" vertex="1">
          <mxGeometry x="230" y="270" width="120" height="60" as="geometry" />
        </mxCell>
        <mxCell id="H-xvVwIZo4uKMG5LaP1M-12" style="edgeStyle=orthogonalEdgeStyle;rounded=0;orthogonalLoop=1;jettySize=auto;html=1;" parent="WIyWlLk6GJQsqaUBKTNV-1" source="H-xvVwIZo4uKMG5LaP1M-6" target="H-xvVwIZo4uKMG5LaP1M-8" edge="1">
          <mxGeometry relative="1" as="geometry" />
        </mxCell>
        <mxCell id="H-xvVwIZo4uKMG5LaP1M-6" value="cadastro dos produtos (brinquedos)" style="rounded=1;whiteSpace=wrap;html=1;" parent="WIyWlLk6GJQsqaUBKTNV-1" vertex="1">
          <mxGeometry x="230" y="540" width="120" height="60" as="geometry" />
        </mxCell>
        <mxCell id="H-xvVwIZo4uKMG5LaP1M-11" style="edgeStyle=orthogonalEdgeStyle;rounded=0;orthogonalLoop=1;jettySize=auto;html=1;entryX=0.25;entryY=1;entryDx=0;entryDy=0;" parent="WIyWlLk6GJQsqaUBKTNV-1" source="H-xvVwIZo4uKMG5LaP1M-7" target="H-xvVwIZo4uKMG5LaP1M-8" edge="1">
          <mxGeometry relative="1" as="geometry" />
        </mxCell>
        <mxCell id="H-xvVwIZo4uKMG5LaP1M-7" value="cadastro de clientes" style="rounded=1;whiteSpace=wrap;html=1;" parent="WIyWlLk6GJQsqaUBKTNV-1" vertex="1">
          <mxGeometry x="230" y="460" width="120" height="60" as="geometry" />
        </mxCell>
        <mxCell id="H-xvVwIZo4uKMG5LaP1M-17" style="edgeStyle=orthogonalEdgeStyle;rounded=0;orthogonalLoop=1;jettySize=auto;html=1;startArrow=none;startFill=0;" parent="WIyWlLk6GJQsqaUBKTNV-1" source="H-xvVwIZo4uKMG5LaP1M-8" target="H-xvVwIZo4uKMG5LaP1M-14" edge="1">
          <mxGeometry relative="1" as="geometry" />
        </mxCell>
        <mxCell id="H-xvVwIZo4uKMG5LaP1M-8" value="Ordem Serviço (OS)" style="rounded=1;whiteSpace=wrap;html=1;" parent="WIyWlLk6GJQsqaUBKTNV-1" vertex="1">
          <mxGeometry x="460" y="390" width="120" height="60" as="geometry" />
        </mxCell>
        <mxCell id="H-xvVwIZo4uKMG5LaP1M-13" value="Contas a Pagar" style="rounded=1;whiteSpace=wrap;html=1;" parent="WIyWlLk6GJQsqaUBKTNV-1" vertex="1">
          <mxGeometry x="30" y="770" width="120" height="60" as="geometry" />
        </mxCell>
        <mxCell id="H-xvVwIZo4uKMG5LaP1M-14" value="Contas a Receber" style="rounded=1;whiteSpace=wrap;html=1;" parent="WIyWlLk6GJQsqaUBKTNV-1" vertex="1">
          <mxGeometry x="680" y="390" width="120" height="60" as="geometry" />
        </mxCell>
        <mxCell id="H-xvVwIZo4uKMG5LaP1M-16" style="edgeStyle=orthogonalEdgeStyle;rounded=0;orthogonalLoop=1;jettySize=auto;html=1;entryX=0;entryY=0.5;entryDx=0;entryDy=0;startArrow=classic;startFill=1;" parent="WIyWlLk6GJQsqaUBKTNV-1" source="H-xvVwIZo4uKMG5LaP1M-15" target="H-xvVwIZo4uKMG5LaP1M-7" edge="1">
          <mxGeometry relative="1" as="geometry" />
        </mxCell>
        <mxCell id="H-xvVwIZo4uKMG5LaP1M-19" style="edgeStyle=orthogonalEdgeStyle;rounded=0;orthogonalLoop=1;jettySize=auto;html=1;startArrow=none;startFill=0;" parent="WIyWlLk6GJQsqaUBKTNV-1" source="H-xvVwIZo4uKMG5LaP1M-15" target="H-xvVwIZo4uKMG5LaP1M-18" edge="1">
          <mxGeometry relative="1" as="geometry" />
        </mxCell>
        <mxCell id="H-xvVwIZo4uKMG5LaP1M-15" value="cadastro de fornecedores" style="rounded=1;whiteSpace=wrap;html=1;" parent="WIyWlLk6GJQsqaUBKTNV-1" vertex="1">
          <mxGeometry x="30" y="460" width="120" height="60" as="geometry" />
        </mxCell>
        <mxCell id="H-xvVwIZo4uKMG5LaP1M-20" style="edgeStyle=orthogonalEdgeStyle;rounded=0;orthogonalLoop=1;jettySize=auto;html=1;startArrow=none;startFill=0;" parent="WIyWlLk6GJQsqaUBKTNV-1" source="H-xvVwIZo4uKMG5LaP1M-18" target="H-xvVwIZo4uKMG5LaP1M-13" edge="1">
          <mxGeometry relative="1" as="geometry" />
        </mxCell>
        <mxCell id="H-xvVwIZo4uKMG5LaP1M-18" value="Pedido de Entrada" style="rounded=1;whiteSpace=wrap;html=1;" parent="WIyWlLk6GJQsqaUBKTNV-1" vertex="1">
          <mxGeometry x="30" y="620" width="120" height="60" as="geometry" />
        </mxCell>
        <mxCell id="H-xvVwIZo4uKMG5LaP1M-24" value="Painel" style="rounded=1;whiteSpace=wrap;html=1;" parent="WIyWlLk6GJQsqaUBKTNV-1" vertex="1">
          <mxGeometry x="510" y="80" width="120" height="60" as="geometry" />
        </mxCell>
        <mxCell id="H-xvVwIZo4uKMG5LaP1M-28" value="Relatório Contas Pagar" style="rounded=1;whiteSpace=wrap;html=1;" parent="WIyWlLk6GJQsqaUBKTNV-1" vertex="1">
          <mxGeometry x="520" y="710" width="120" height="60" as="geometry" />
        </mxCell>
        <mxCell id="H-xvVwIZo4uKMG5LaP1M-29" value="Relatório Contas Receber" style="rounded=1;whiteSpace=wrap;html=1;" parent="WIyWlLk6GJQsqaUBKTNV-1" vertex="1">
          <mxGeometry x="520" y="820" width="120" height="60" as="geometry" />
        </mxCell>
        <mxCell id="H-xvVwIZo4uKMG5LaP1M-30" value="Relatório Funcionários e Supervisores" style="rounded=1;whiteSpace=wrap;html=1;" parent="WIyWlLk6GJQsqaUBKTNV-1" vertex="1">
          <mxGeometry x="520" y="910" width="120" height="60" as="geometry" />
        </mxCell>
        <mxCell id="H-xvVwIZo4uKMG5LaP1M-31" value="Relatório de Produtos" style="rounded=1;whiteSpace=wrap;html=1;" parent="WIyWlLk6GJQsqaUBKTNV-1" vertex="1">
          <mxGeometry x="520" y="1000" width="120" height="60" as="geometry" />
        </mxCell>
        <mxCell id="H-xvVwIZo4uKMG5LaP1M-32" value="Relatório de OS" style="rounded=1;whiteSpace=wrap;html=1;" parent="WIyWlLk6GJQsqaUBKTNV-1" vertex="1">
          <mxGeometry x="520" y="1090" width="120" height="60" as="geometry" />
        </mxCell>
        <mxCell id="H-xvVwIZo4uKMG5LaP1M-33" value="Relatório de Pedido de Entrada" style="rounded=1;whiteSpace=wrap;html=1;" parent="WIyWlLk6GJQsqaUBKTNV-1" vertex="1">
          <mxGeometry x="270" y="1080" width="120" height="60" as="geometry" />
        </mxCell>
        <mxCell id="H-xvVwIZo4uKMG5LaP1M-35" style="edgeStyle=orthogonalEdgeStyle;rounded=0;orthogonalLoop=1;jettySize=auto;html=1;entryX=0;entryY=0.5;entryDx=0;entryDy=0;startArrow=none;startFill=0;" parent="WIyWlLk6GJQsqaUBKTNV-1" source="H-xvVwIZo4uKMG5LaP1M-34" target="H-xvVwIZo4uKMG5LaP1M-28" edge="1">
          <mxGeometry relative="1" as="geometry" />
        </mxCell>
        <mxCell id="H-xvVwIZo4uKMG5LaP1M-36" style="edgeStyle=orthogonalEdgeStyle;rounded=0;orthogonalLoop=1;jettySize=auto;html=1;startArrow=none;startFill=0;" parent="WIyWlLk6GJQsqaUBKTNV-1" source="H-xvVwIZo4uKMG5LaP1M-34" target="H-xvVwIZo4uKMG5LaP1M-29" edge="1">
          <mxGeometry relative="1" as="geometry" />
        </mxCell>
        <mxCell id="H-xvVwIZo4uKMG5LaP1M-37" style="edgeStyle=orthogonalEdgeStyle;rounded=0;orthogonalLoop=1;jettySize=auto;html=1;startArrow=none;startFill=0;" parent="WIyWlLk6GJQsqaUBKTNV-1" source="H-xvVwIZo4uKMG5LaP1M-34" target="H-xvVwIZo4uKMG5LaP1M-30" edge="1">
          <mxGeometry relative="1" as="geometry" />
        </mxCell>
        <mxCell id="H-xvVwIZo4uKMG5LaP1M-38" style="edgeStyle=orthogonalEdgeStyle;rounded=0;orthogonalLoop=1;jettySize=auto;html=1;entryX=0;entryY=0.5;entryDx=0;entryDy=0;startArrow=none;startFill=0;" parent="WIyWlLk6GJQsqaUBKTNV-1" source="H-xvVwIZo4uKMG5LaP1M-34" target="H-xvVwIZo4uKMG5LaP1M-31" edge="1">
          <mxGeometry relative="1" as="geometry" />
        </mxCell>
        <mxCell id="H-xvVwIZo4uKMG5LaP1M-39" style="edgeStyle=orthogonalEdgeStyle;rounded=0;orthogonalLoop=1;jettySize=auto;html=1;entryX=0;entryY=0.5;entryDx=0;entryDy=0;startArrow=none;startFill=0;" parent="WIyWlLk6GJQsqaUBKTNV-1" source="H-xvVwIZo4uKMG5LaP1M-34" target="H-xvVwIZo4uKMG5LaP1M-32" edge="1">
          <mxGeometry relative="1" as="geometry" />
        </mxCell>
        <mxCell id="H-xvVwIZo4uKMG5LaP1M-40" style="edgeStyle=orthogonalEdgeStyle;rounded=0;orthogonalLoop=1;jettySize=auto;html=1;startArrow=none;startFill=0;" parent="WIyWlLk6GJQsqaUBKTNV-1" source="H-xvVwIZo4uKMG5LaP1M-34" target="H-xvVwIZo4uKMG5LaP1M-33" edge="1">
          <mxGeometry relative="1" as="geometry" />
        </mxCell>
        <mxCell id="H-xvVwIZo4uKMG5LaP1M-34" value="Relatório" style="rounded=1;whiteSpace=wrap;html=1;" parent="WIyWlLk6GJQsqaUBKTNV-1" vertex="1">
          <mxGeometry x="270" y="850" width="120" height="60" as="geometry" />
        </mxCell>
      </root>
    </mxGraphModel>
  </diagram>
  <diagram id="tal-h-jrdfx2veLlzVZ1" name="Flow Functions">
    <mxGraphModel dx="881" dy="540" grid="1" gridSize="10" guides="1" tooltips="1" connect="1" arrows="1" fold="1" page="1" pageScale="1" pageWidth="827" pageHeight="1169" math="0" shadow="0">
      <root>
        <mxCell id="jtgbaJmSJ_ehyxfb3TlL-0" />
        <mxCell id="jtgbaJmSJ_ehyxfb3TlL-1" parent="jtgbaJmSJ_ehyxfb3TlL-0" />
        <mxCell id="mH1qTDOkve_zss4yPTDx-56" value="Funções - Conectores" style="text;html=1;resizable=0;autosize=1;align=center;verticalAlign=middle;points=[];rounded=0;fontStyle=5;dashed=1;shadow=0;sketch=0;glass=0;fontSize=30;direction=west;rotation=0;" vertex="1" parent="jtgbaJmSJ_ehyxfb3TlL-1">
          <mxGeometry x="250" y="20" width="330" height="40" as="geometry" />
        </mxCell>
        <mxCell id="mH1qTDOkve_zss4yPTDx-57" style="edgeStyle=orthogonalEdgeStyle;rounded=0;orthogonalLoop=1;jettySize=auto;html=1;entryX=0;entryY=0.5;entryDx=0;entryDy=0;entryPerimeter=0;" edge="1" parent="jtgbaJmSJ_ehyxfb3TlL-1" source="mH1qTDOkve_zss4yPTDx-59" target="mH1qTDOkve_zss4yPTDx-62">
          <mxGeometry relative="1" as="geometry" />
        </mxCell>
        <mxCell id="mH1qTDOkve_zss4yPTDx-58" value="Checar Suporte&lt;br&gt;Notificações" style="edgeLabel;html=1;align=center;verticalAlign=middle;resizable=0;points=[];" vertex="1" connectable="0" parent="mH1qTDOkve_zss4yPTDx-57">
          <mxGeometry x="-0.1538" y="2" relative="1" as="geometry">
            <mxPoint y="1" as="offset" />
          </mxGeometry>
        </mxCell>
        <mxCell id="mH1qTDOkve_zss4yPTDx-59" value="B" style="strokeWidth=2;html=1;shape=mxgraph.flowchart.start_2;whiteSpace=wrap;fillColor=#f8cecc;strokeColor=#b85450;" vertex="1" parent="jtgbaJmSJ_ehyxfb3TlL-1">
          <mxGeometry x="38.5" y="167.5" width="50" height="50" as="geometry" />
        </mxCell>
        <mxCell id="mH1qTDOkve_zss4yPTDx-60" style="edgeStyle=orthogonalEdgeStyle;rounded=0;orthogonalLoop=1;jettySize=auto;html=1;entryX=0;entryY=0.5;entryDx=0;entryDy=0;entryPerimeter=0;" edge="1" parent="jtgbaJmSJ_ehyxfb3TlL-1" source="mH1qTDOkve_zss4yPTDx-62" target="mH1qTDOkve_zss4yPTDx-67">
          <mxGeometry relative="1" as="geometry" />
        </mxCell>
        <mxCell id="mH1qTDOkve_zss4yPTDx-61" value="Sim" style="edgeLabel;html=1;align=center;verticalAlign=middle;resizable=0;points=[];" vertex="1" connectable="0" parent="mH1qTDOkve_zss4yPTDx-60">
          <mxGeometry x="-0.25" y="3" relative="1" as="geometry">
            <mxPoint as="offset" />
          </mxGeometry>
        </mxCell>
        <mxCell id="mH1qTDOkve_zss4yPTDx-62" value="Navegador&lt;br&gt;Suporta&lt;br&gt;Notificações?" style="strokeWidth=2;html=1;shape=mxgraph.flowchart.decision;whiteSpace=wrap;fillColor=#fff2cc;strokeColor=#d6b656;" vertex="1" parent="jtgbaJmSJ_ehyxfb3TlL-1">
          <mxGeometry x="217.5" y="140" width="110" height="105" as="geometry" />
        </mxCell>
        <mxCell id="mH1qTDOkve_zss4yPTDx-63" style="edgeStyle=orthogonalEdgeStyle;rounded=0;orthogonalLoop=1;jettySize=auto;html=1;entryX=0;entryY=0.5;entryDx=0;entryDy=0;" edge="1" parent="jtgbaJmSJ_ehyxfb3TlL-1" source="mH1qTDOkve_zss4yPTDx-67" target="mH1qTDOkve_zss4yPTDx-68">
          <mxGeometry relative="1" as="geometry" />
        </mxCell>
        <mxCell id="mH1qTDOkve_zss4yPTDx-64" value="Não" style="edgeLabel;html=1;align=center;verticalAlign=middle;resizable=0;points=[];" vertex="1" connectable="0" parent="mH1qTDOkve_zss4yPTDx-63">
          <mxGeometry x="0.4716" relative="1" as="geometry">
            <mxPoint as="offset" />
          </mxGeometry>
        </mxCell>
        <mxCell id="mH1qTDOkve_zss4yPTDx-65" style="edgeStyle=orthogonalEdgeStyle;rounded=0;orthogonalLoop=1;jettySize=auto;html=1;entryX=0;entryY=0.5;entryDx=0;entryDy=0;" edge="1" parent="jtgbaJmSJ_ehyxfb3TlL-1" source="mH1qTDOkve_zss4yPTDx-67" target="mH1qTDOkve_zss4yPTDx-69">
          <mxGeometry relative="1" as="geometry" />
        </mxCell>
        <mxCell id="mH1qTDOkve_zss4yPTDx-66" value="Sim" style="edgeLabel;html=1;align=center;verticalAlign=middle;resizable=0;points=[];" vertex="1" connectable="0" parent="mH1qTDOkve_zss4yPTDx-65">
          <mxGeometry x="0.5357" y="3" relative="1" as="geometry">
            <mxPoint as="offset" />
          </mxGeometry>
        </mxCell>
        <mxCell id="mH1qTDOkve_zss4yPTDx-67" value="Ativar&lt;br&gt;Notificações?" style="strokeWidth=2;html=1;shape=mxgraph.flowchart.decision;whiteSpace=wrap;fillColor=#fff2cc;strokeColor=#d6b656;" vertex="1" parent="jtgbaJmSJ_ehyxfb3TlL-1">
          <mxGeometry x="441.5" y="140" width="110" height="105" as="geometry" />
        </mxCell>
        <mxCell id="mH1qTDOkve_zss4yPTDx-68" value="Salvar Permissão como &lt;b&gt;Negada&lt;/b&gt;" style="rounded=1;whiteSpace=wrap;html=1;absoluteArcSize=1;arcSize=14;strokeWidth=2;fillColor=#dae8fc;strokeColor=#6c8ebf;" vertex="1" parent="jtgbaJmSJ_ehyxfb3TlL-1">
          <mxGeometry x="701.5" y="90" width="90" height="82.5" as="geometry" />
        </mxCell>
        <mxCell id="mH1qTDOkve_zss4yPTDx-69" value="Salvar Permissão como &lt;b&gt;Permitida&lt;/b&gt;" style="rounded=1;whiteSpace=wrap;html=1;absoluteArcSize=1;arcSize=14;strokeWidth=2;fillColor=#dae8fc;strokeColor=#6c8ebf;" vertex="1" parent="jtgbaJmSJ_ehyxfb3TlL-1">
          <mxGeometry x="701.5" y="220" width="90" height="82.5" as="geometry" />
        </mxCell>
        <mxCell id="mH1qTDOkve_zss4yPTDx-70" style="edgeStyle=orthogonalEdgeStyle;rounded=0;orthogonalLoop=1;jettySize=auto;html=1;startArrow=none;startFill=0;fontSize=11;entryX=0;entryY=0.5;entryDx=0;entryDy=0;entryPerimeter=0;" edge="1" parent="jtgbaJmSJ_ehyxfb3TlL-1" source="mH1qTDOkve_zss4yPTDx-72" target="mH1qTDOkve_zss4yPTDx-75">
          <mxGeometry relative="1" as="geometry">
            <mxPoint x="198.5" y="342.5" as="targetPoint" />
          </mxGeometry>
        </mxCell>
        <mxCell id="mH1qTDOkve_zss4yPTDx-71" value="Checar Permissão&lt;br&gt;Notificação" style="edgeLabel;html=1;align=center;verticalAlign=middle;resizable=0;points=[];fontSize=11;" vertex="1" connectable="0" parent="mH1qTDOkve_zss4yPTDx-70">
          <mxGeometry x="-0.1898" y="-2" relative="1" as="geometry">
            <mxPoint x="2" y="-2" as="offset" />
          </mxGeometry>
        </mxCell>
        <mxCell id="mH1qTDOkve_zss4yPTDx-72" value="C" style="strokeWidth=2;html=1;shape=mxgraph.flowchart.start_2;whiteSpace=wrap;fillColor=#f8cecc;strokeColor=#b85450;" vertex="1" parent="jtgbaJmSJ_ehyxfb3TlL-1">
          <mxGeometry x="38.5" y="317.5" width="50" height="50" as="geometry" />
        </mxCell>
        <mxCell id="mH1qTDOkve_zss4yPTDx-73" style="edgeStyle=orthogonalEdgeStyle;rounded=0;orthogonalLoop=1;jettySize=auto;html=1;entryX=0;entryY=0.5;entryDx=0;entryDy=0;startArrow=none;startFill=0;fontSize=11;" edge="1" parent="jtgbaJmSJ_ehyxfb3TlL-1" source="mH1qTDOkve_zss4yPTDx-75" target="mH1qTDOkve_zss4yPTDx-76">
          <mxGeometry relative="1" as="geometry" />
        </mxCell>
        <mxCell id="mH1qTDOkve_zss4yPTDx-74" value="Sim" style="edgeLabel;html=1;align=center;verticalAlign=middle;resizable=0;points=[];fontSize=11;" vertex="1" connectable="0" parent="mH1qTDOkve_zss4yPTDx-73">
          <mxGeometry x="-0.3367" y="-3" relative="1" as="geometry">
            <mxPoint x="10" y="-3" as="offset" />
          </mxGeometry>
        </mxCell>
        <mxCell id="mH1qTDOkve_zss4yPTDx-75" value="Notificação Permitida?" style="strokeWidth=2;html=1;shape=mxgraph.flowchart.decision;whiteSpace=wrap;fillColor=#fff2cc;strokeColor=#d6b656;" vertex="1" parent="jtgbaJmSJ_ehyxfb3TlL-1">
          <mxGeometry x="218.5" y="290" width="110" height="105" as="geometry" />
        </mxCell>
        <mxCell id="mH1qTDOkve_zss4yPTDx-76" value="Enviar Notificação" style="rounded=1;whiteSpace=wrap;html=1;absoluteArcSize=1;arcSize=14;strokeWidth=2;fillColor=#dae8fc;strokeColor=#6c8ebf;" vertex="1" parent="jtgbaJmSJ_ehyxfb3TlL-1">
          <mxGeometry x="448.5" y="301.25" width="90" height="82.5" as="geometry" />
        </mxCell>
        <mxCell id="mH1qTDOkve_zss4yPTDx-77" style="edgeStyle=orthogonalEdgeStyle;rounded=0;orthogonalLoop=1;jettySize=auto;html=1;entryX=0;entryY=0.5;entryDx=0;entryDy=0;entryPerimeter=0;startArrow=block;startFill=1;" edge="1" parent="jtgbaJmSJ_ehyxfb3TlL-1" source="mH1qTDOkve_zss4yPTDx-79" target="mH1qTDOkve_zss4yPTDx-87">
          <mxGeometry relative="1" as="geometry" />
        </mxCell>
        <mxCell id="mH1qTDOkve_zss4yPTDx-78" value="Transferência&lt;br&gt;Dados" style="edgeLabel;html=1;align=center;verticalAlign=middle;resizable=0;points=[];" vertex="1" connectable="0" parent="mH1qTDOkve_zss4yPTDx-77">
          <mxGeometry x="-0.2" y="2" relative="1" as="geometry">
            <mxPoint x="8" y="2" as="offset" />
          </mxGeometry>
        </mxCell>
        <mxCell id="mH1qTDOkve_zss4yPTDx-79" value="E" style="strokeWidth=2;html=1;shape=mxgraph.flowchart.start_2;whiteSpace=wrap;fillColor=#f8cecc;strokeColor=#b85450;" vertex="1" parent="jtgbaJmSJ_ehyxfb3TlL-1">
          <mxGeometry x="41.5" y="560" width="50" height="50" as="geometry" />
        </mxCell>
        <mxCell id="mH1qTDOkve_zss4yPTDx-80" style="edgeStyle=orthogonalEdgeStyle;rounded=0;orthogonalLoop=1;jettySize=auto;html=1;entryX=0;entryY=0.5;entryDx=0;entryDy=0;entryPerimeter=0;startArrow=block;startFill=1;" edge="1" parent="jtgbaJmSJ_ehyxfb3TlL-1" source="mH1qTDOkve_zss4yPTDx-82" target="mH1qTDOkve_zss4yPTDx-86">
          <mxGeometry relative="1" as="geometry" />
        </mxCell>
        <mxCell id="mH1qTDOkve_zss4yPTDx-81" value="Transferência&lt;br&gt;Dados" style="edgeLabel;html=1;align=center;verticalAlign=middle;resizable=0;points=[];" vertex="1" connectable="0" parent="mH1qTDOkve_zss4yPTDx-80">
          <mxGeometry x="-0.2145" y="-3" relative="1" as="geometry">
            <mxPoint x="13" y="-3" as="offset" />
          </mxGeometry>
        </mxCell>
        <mxCell id="mH1qTDOkve_zss4yPTDx-82" value="F" style="strokeWidth=2;html=1;shape=mxgraph.flowchart.start_2;whiteSpace=wrap;fillColor=#f8cecc;strokeColor=#b85450;" vertex="1" parent="jtgbaJmSJ_ehyxfb3TlL-1">
          <mxGeometry x="402.5" y="425" width="50" height="50" as="geometry" />
        </mxCell>
        <mxCell id="mH1qTDOkve_zss4yPTDx-83" style="edgeStyle=orthogonalEdgeStyle;rounded=0;orthogonalLoop=1;jettySize=auto;html=1;startArrow=block;startFill=1;" edge="1" parent="jtgbaJmSJ_ehyxfb3TlL-1" source="mH1qTDOkve_zss4yPTDx-85" target="mH1qTDOkve_zss4yPTDx-88">
          <mxGeometry relative="1" as="geometry" />
        </mxCell>
        <mxCell id="mH1qTDOkve_zss4yPTDx-84" value="Transferência&lt;br&gt;Dados" style="edgeLabel;html=1;align=center;verticalAlign=middle;resizable=0;points=[];" vertex="1" connectable="0" parent="mH1qTDOkve_zss4yPTDx-83">
          <mxGeometry x="-0.2396" y="4" relative="1" as="geometry">
            <mxPoint x="9" y="4" as="offset" />
          </mxGeometry>
        </mxCell>
        <mxCell id="mH1qTDOkve_zss4yPTDx-85" value="D" style="strokeWidth=2;html=1;shape=mxgraph.flowchart.start_2;whiteSpace=wrap;fillColor=#f8cecc;strokeColor=#b85450;" vertex="1" parent="jtgbaJmSJ_ehyxfb3TlL-1">
          <mxGeometry x="38.5" y="425" width="50" height="50" as="geometry" />
        </mxCell>
        <mxCell id="mH1qTDOkve_zss4yPTDx-86" value="&lt;br&gt;&lt;br&gt;MySQL (Users Management)" style="strokeWidth=2;html=1;shape=mxgraph.flowchart.database;whiteSpace=wrap;fillColor=#f5f5f5;strokeColor=#666666;fontColor=#333333;" vertex="1" parent="jtgbaJmSJ_ehyxfb3TlL-1">
          <mxGeometry x="572.5" y="410" width="90" height="80" as="geometry" />
        </mxCell>
        <mxCell id="mH1qTDOkve_zss4yPTDx-87" value="Neo4J (Flow)" style="strokeWidth=2;html=1;shape=mxgraph.flowchart.database;whiteSpace=wrap;fillColor=#f5f5f5;strokeColor=#666666;fontColor=#333333;" vertex="1" parent="jtgbaJmSJ_ehyxfb3TlL-1">
          <mxGeometry x="199.5" y="545" width="90" height="80" as="geometry" />
        </mxCell>
        <mxCell id="mH1qTDOkve_zss4yPTDx-88" value="&lt;br&gt;&lt;br&gt;MySQL (Products Photos)" style="strokeWidth=2;html=1;shape=mxgraph.flowchart.database;whiteSpace=wrap;fillColor=#f5f5f5;strokeColor=#666666;fontColor=#333333;" vertex="1" parent="jtgbaJmSJ_ehyxfb3TlL-1">
          <mxGeometry x="199.5" y="410" width="90" height="80" as="geometry" />
        </mxCell>
      </root>
    </mxGraphModel>
  </diagram>
  <diagram id="9KP4zGZVPOgl1R6rn4H_" name="Flow - Login">
    <mxGraphModel dx="749" dy="459" grid="1" gridSize="10" guides="1" tooltips="1" connect="1" arrows="1" fold="1" page="1" pageScale="1" pageWidth="827" pageHeight="1169" math="0" shadow="0">
      <root>
        <mxCell id="7cgMG7bWDwLEBmEkMe4G-0" />
        <mxCell id="7cgMG7bWDwLEBmEkMe4G-1" parent="7cgMG7bWDwLEBmEkMe4G-0" />
        <mxCell id="7cgMG7bWDwLEBmEkMe4G-2" value="Página - Login" style="text;html=1;resizable=0;autosize=1;align=center;verticalAlign=middle;points=[];rounded=0;fontStyle=5;dashed=1;shadow=0;sketch=0;glass=0;fontSize=30;direction=west;rotation=0;" vertex="1" parent="7cgMG7bWDwLEBmEkMe4G-1">
          <mxGeometry x="305" y="20" width="220" height="40" as="geometry" />
        </mxCell>
        <mxCell id="7cgMG7bWDwLEBmEkMe4G-7" style="edgeStyle=orthogonalEdgeStyle;rounded=0;orthogonalLoop=1;jettySize=auto;html=1;entryX=1;entryY=0.5;entryDx=0;entryDy=0;entryPerimeter=0;startArrow=classic;startFill=1;" edge="1" parent="7cgMG7bWDwLEBmEkMe4G-1" source="7cgMG7bWDwLEBmEkMe4G-16" target="7cgMG7bWDwLEBmEkMe4G-19">
          <mxGeometry relative="1" as="geometry" />
        </mxCell>
        <mxCell id="7cgMG7bWDwLEBmEkMe4G-8" value="Esqueceu Senha" style="edgeLabel;html=1;align=center;verticalAlign=middle;resizable=0;points=[];" vertex="1" connectable="0" parent="7cgMG7bWDwLEBmEkMe4G-7">
          <mxGeometry x="0.7531" y="-3" relative="1" as="geometry">
            <mxPoint x="19.5" y="3" as="offset" />
          </mxGeometry>
        </mxCell>
        <mxCell id="7cgMG7bWDwLEBmEkMe4G-9" style="edgeStyle=orthogonalEdgeStyle;rounded=0;orthogonalLoop=1;jettySize=auto;html=1;startArrow=classic;startFill=1;" edge="1" parent="7cgMG7bWDwLEBmEkMe4G-1" source="7cgMG7bWDwLEBmEkMe4G-16" target="7cgMG7bWDwLEBmEkMe4G-20">
          <mxGeometry relative="1" as="geometry" />
        </mxCell>
        <mxCell id="7cgMG7bWDwLEBmEkMe4G-10" value="Cadastro" style="edgeLabel;html=1;align=center;verticalAlign=middle;resizable=0;points=[];" vertex="1" connectable="0" parent="7cgMG7bWDwLEBmEkMe4G-9">
          <mxGeometry x="0.5943" y="-3" relative="1" as="geometry">
            <mxPoint as="offset" />
          </mxGeometry>
        </mxCell>
        <mxCell id="7cgMG7bWDwLEBmEkMe4G-11" style="edgeStyle=orthogonalEdgeStyle;rounded=0;orthogonalLoop=1;jettySize=auto;html=1;entryX=1;entryY=0.5;entryDx=0;entryDy=0;entryPerimeter=0;exitX=0;exitY=1;exitDx=0;exitDy=0;startArrow=classic;startFill=1;endArrow=none;endFill=0;" edge="1" parent="7cgMG7bWDwLEBmEkMe4G-1" source="7cgMG7bWDwLEBmEkMe4G-16" target="7cgMG7bWDwLEBmEkMe4G-21">
          <mxGeometry relative="1" as="geometry">
            <Array as="points">
              <mxPoint x="380" y="360" />
              <mxPoint x="380" y="415" />
            </Array>
          </mxGeometry>
        </mxCell>
        <mxCell id="7cgMG7bWDwLEBmEkMe4G-12" value="Redirecionamentos" style="edgeLabel;html=1;align=center;verticalAlign=middle;resizable=0;points=[];" vertex="1" connectable="0" parent="7cgMG7bWDwLEBmEkMe4G-11">
          <mxGeometry x="-0.5601" y="1" relative="1" as="geometry">
            <mxPoint x="-54.5" y="-86" as="offset" />
          </mxGeometry>
        </mxCell>
        <mxCell id="7cgMG7bWDwLEBmEkMe4G-13" value="Alteração Senha" style="edgeLabel;html=1;align=center;verticalAlign=middle;resizable=0;points=[];" vertex="1" connectable="0" parent="7cgMG7bWDwLEBmEkMe4G-11">
          <mxGeometry x="0.7955" y="4" relative="1" as="geometry">
            <mxPoint x="89.5" y="-9" as="offset" />
          </mxGeometry>
        </mxCell>
        <mxCell id="7cgMG7bWDwLEBmEkMe4G-14" style="edgeStyle=orthogonalEdgeStyle;rounded=0;orthogonalLoop=1;jettySize=auto;html=1;entryX=0;entryY=0.5;entryDx=0;entryDy=0;startArrow=none;startFill=0;endArrow=classic;endFill=1;" edge="1" parent="7cgMG7bWDwLEBmEkMe4G-1" source="7cgMG7bWDwLEBmEkMe4G-16" target="7cgMG7bWDwLEBmEkMe4G-24">
          <mxGeometry relative="1" as="geometry" />
        </mxCell>
        <mxCell id="7cgMG7bWDwLEBmEkMe4G-15" value="Preencher: Email, Senha" style="edgeLabel;html=1;align=center;verticalAlign=middle;resizable=0;points=[];" vertex="1" connectable="0" parent="7cgMG7bWDwLEBmEkMe4G-14">
          <mxGeometry x="-0.2735" relative="1" as="geometry">
            <mxPoint x="14.5" as="offset" />
          </mxGeometry>
        </mxCell>
        <mxCell id="5McDdXa1E_bSieTZtRDX-0" style="edgeStyle=orthogonalEdgeStyle;rounded=0;orthogonalLoop=1;jettySize=auto;html=1;" edge="1" parent="7cgMG7bWDwLEBmEkMe4G-1" source="7cgMG7bWDwLEBmEkMe4G-16" target="7cgMG7bWDwLEBmEkMe4G-18">
          <mxGeometry relative="1" as="geometry" />
        </mxCell>
        <mxCell id="5McDdXa1E_bSieTZtRDX-1" value="Notificação" style="edgeLabel;html=1;align=center;verticalAlign=middle;resizable=0;points=[];" vertex="1" connectable="0" parent="5McDdXa1E_bSieTZtRDX-0">
          <mxGeometry x="0.2943" y="-1" relative="1" as="geometry">
            <mxPoint as="offset" />
          </mxGeometry>
        </mxCell>
        <mxCell id="7cgMG7bWDwLEBmEkMe4G-16" value="Login" style="rounded=1;whiteSpace=wrap;html=1;absoluteArcSize=1;arcSize=14;strokeWidth=2;fillColor=#d5e8d4;strokeColor=#82b366;" vertex="1" parent="7cgMG7bWDwLEBmEkMe4G-1">
          <mxGeometry x="375.5" y="300" width="70" height="60" as="geometry" />
        </mxCell>
        <mxCell id="7cgMG7bWDwLEBmEkMe4G-18" value="B" style="strokeWidth=2;html=1;shape=mxgraph.flowchart.start_2;whiteSpace=wrap;fillColor=#f8cecc;strokeColor=#b85450;" vertex="1" parent="7cgMG7bWDwLEBmEkMe4G-1">
          <mxGeometry x="385.5" y="150" width="50" height="50" as="geometry" />
        </mxCell>
        <mxCell id="7cgMG7bWDwLEBmEkMe4G-19" value="A0" style="strokeWidth=2;html=1;shape=mxgraph.flowchart.start_2;whiteSpace=wrap;fillColor=#f8cecc;strokeColor=#b85450;" vertex="1" parent="7cgMG7bWDwLEBmEkMe4G-1">
          <mxGeometry x="80" y="220" width="50" height="50" as="geometry" />
        </mxCell>
        <mxCell id="7cgMG7bWDwLEBmEkMe4G-20" value="A1" style="strokeWidth=2;html=1;shape=mxgraph.flowchart.start_2;whiteSpace=wrap;fillColor=#f8cecc;strokeColor=#b85450;" vertex="1" parent="7cgMG7bWDwLEBmEkMe4G-1">
          <mxGeometry x="80" y="305" width="50" height="50" as="geometry" />
        </mxCell>
        <mxCell id="7cgMG7bWDwLEBmEkMe4G-21" value="A3" style="strokeWidth=2;html=1;shape=mxgraph.flowchart.start_2;whiteSpace=wrap;fillColor=#f8cecc;strokeColor=#b85450;" vertex="1" parent="7cgMG7bWDwLEBmEkMe4G-1">
          <mxGeometry x="80" y="390" width="50" height="50" as="geometry" />
        </mxCell>
        <mxCell id="7cgMG7bWDwLEBmEkMe4G-22" style="edgeStyle=orthogonalEdgeStyle;rounded=0;orthogonalLoop=1;jettySize=auto;html=1;startArrow=none;startFill=0;endArrow=classic;endFill=1;" edge="1" parent="7cgMG7bWDwLEBmEkMe4G-1" source="7cgMG7bWDwLEBmEkMe4G-24" target="7cgMG7bWDwLEBmEkMe4G-32">
          <mxGeometry relative="1" as="geometry" />
        </mxCell>
        <mxCell id="7cgMG7bWDwLEBmEkMe4G-23" value="Requisição Ajax" style="edgeLabel;html=1;align=center;verticalAlign=middle;resizable=0;points=[];" vertex="1" connectable="0" parent="7cgMG7bWDwLEBmEkMe4G-22">
          <mxGeometry x="0.2408" y="-3" relative="1" as="geometry">
            <mxPoint x="3" y="16.5" as="offset" />
          </mxGeometry>
        </mxCell>
        <mxCell id="7cgMG7bWDwLEBmEkMe4G-24" value="Formulário" style="shape=parallelogram;html=1;strokeWidth=2;perimeter=parallelogramPerimeter;whiteSpace=wrap;rounded=1;arcSize=12;size=0.23;shadow=0;glass=0;sketch=0;fillColor=#e1d5e7;fontSize=11;strokeColor=#9673a6;" vertex="1" parent="7cgMG7bWDwLEBmEkMe4G-1">
          <mxGeometry x="600" y="300" width="100" height="60" as="geometry" />
        </mxCell>
        <mxCell id="7cgMG7bWDwLEBmEkMe4G-25" style="edgeStyle=orthogonalEdgeStyle;rounded=0;orthogonalLoop=1;jettySize=auto;html=1;entryX=0.5;entryY=1;entryDx=0;entryDy=0;startArrow=none;startFill=0;endArrow=classic;endFill=1;" edge="1" parent="7cgMG7bWDwLEBmEkMe4G-1" source="7cgMG7bWDwLEBmEkMe4G-29" target="7cgMG7bWDwLEBmEkMe4G-16">
          <mxGeometry relative="1" as="geometry" />
        </mxCell>
        <mxCell id="7cgMG7bWDwLEBmEkMe4G-26" value="Não" style="edgeLabel;html=1;align=center;verticalAlign=middle;resizable=0;points=[];" vertex="1" connectable="0" parent="7cgMG7bWDwLEBmEkMe4G-25">
          <mxGeometry x="0.3301" y="4" relative="1" as="geometry">
            <mxPoint x="4" y="4.5" as="offset" />
          </mxGeometry>
        </mxCell>
        <mxCell id="7cgMG7bWDwLEBmEkMe4G-27" style="edgeStyle=orthogonalEdgeStyle;rounded=0;orthogonalLoop=1;jettySize=auto;html=1;entryX=1;entryY=0.5;entryDx=0;entryDy=0;entryPerimeter=0;startArrow=none;startFill=0;endArrow=classic;endFill=1;" edge="1" parent="7cgMG7bWDwLEBmEkMe4G-1" source="7cgMG7bWDwLEBmEkMe4G-29" target="7cgMG7bWDwLEBmEkMe4G-36">
          <mxGeometry relative="1" as="geometry" />
        </mxCell>
        <mxCell id="7cgMG7bWDwLEBmEkMe4G-28" value="Sim&lt;br&gt;(Redirecionamento&lt;br&gt;Painel)" style="edgeLabel;html=1;align=center;verticalAlign=middle;resizable=0;points=[];" vertex="1" connectable="0" parent="7cgMG7bWDwLEBmEkMe4G-27">
          <mxGeometry x="0.0881" y="-1" relative="1" as="geometry">
            <mxPoint as="offset" />
          </mxGeometry>
        </mxCell>
        <mxCell id="7cgMG7bWDwLEBmEkMe4G-29" value="Campos Válidos?" style="strokeWidth=2;html=1;shape=mxgraph.flowchart.decision;whiteSpace=wrap;fillColor=#fff2cc;strokeColor=#d6b656;" vertex="1" parent="7cgMG7bWDwLEBmEkMe4G-1">
          <mxGeometry x="525" y="430" width="90" height="80" as="geometry" />
        </mxCell>
        <mxCell id="7cgMG7bWDwLEBmEkMe4G-30" style="edgeStyle=orthogonalEdgeStyle;rounded=0;orthogonalLoop=1;jettySize=auto;html=1;startArrow=none;startFill=0;endArrow=classic;endFill=1;" edge="1" parent="7cgMG7bWDwLEBmEkMe4G-1" source="7cgMG7bWDwLEBmEkMe4G-32" target="7cgMG7bWDwLEBmEkMe4G-35">
          <mxGeometry relative="1" as="geometry">
            <Array as="points">
              <mxPoint x="755" y="530" />
              <mxPoint x="755" y="530" />
            </Array>
          </mxGeometry>
        </mxCell>
        <mxCell id="7cgMG7bWDwLEBmEkMe4G-31" value="Select MySQL" style="edgeLabel;html=1;align=center;verticalAlign=middle;resizable=0;points=[];" vertex="1" connectable="0" parent="7cgMG7bWDwLEBmEkMe4G-30">
          <mxGeometry x="-0.2706" y="3" relative="1" as="geometry">
            <mxPoint x="-3" y="9" as="offset" />
          </mxGeometry>
        </mxCell>
        <mxCell id="7cgMG7bWDwLEBmEkMe4G-32" value="Validação Campos" style="rounded=1;whiteSpace=wrap;html=1;absoluteArcSize=1;arcSize=14;strokeWidth=2;fillColor=#dae8fc;strokeColor=#6c8ebf;" vertex="1" parent="7cgMG7bWDwLEBmEkMe4G-1">
          <mxGeometry x="720" y="440" width="70" height="60" as="geometry" />
        </mxCell>
        <mxCell id="7cgMG7bWDwLEBmEkMe4G-33" style="edgeStyle=orthogonalEdgeStyle;rounded=0;orthogonalLoop=1;jettySize=auto;html=1;startArrow=none;startFill=0;endArrow=classic;endFill=1;" edge="1" parent="7cgMG7bWDwLEBmEkMe4G-1" source="7cgMG7bWDwLEBmEkMe4G-35" target="7cgMG7bWDwLEBmEkMe4G-29">
          <mxGeometry relative="1" as="geometry" />
        </mxCell>
        <mxCell id="7cgMG7bWDwLEBmEkMe4G-34" value="Validação" style="edgeLabel;html=1;align=center;verticalAlign=middle;resizable=0;points=[];" vertex="1" connectable="0" parent="7cgMG7bWDwLEBmEkMe4G-33">
          <mxGeometry x="-0.1292" y="1" relative="1" as="geometry">
            <mxPoint x="23" y="-1" as="offset" />
          </mxGeometry>
        </mxCell>
        <mxCell id="7cgMG7bWDwLEBmEkMe4G-35" value="F" style="strokeWidth=2;html=1;shape=mxgraph.flowchart.start_2;whiteSpace=wrap;fillColor=#f8cecc;strokeColor=#b85450;" vertex="1" parent="7cgMG7bWDwLEBmEkMe4G-1">
          <mxGeometry x="730" y="585" width="50" height="50" as="geometry" />
        </mxCell>
        <mxCell id="7cgMG7bWDwLEBmEkMe4G-36" value="A4" style="strokeWidth=2;html=1;shape=mxgraph.flowchart.start_2;whiteSpace=wrap;fillColor=#f8cecc;strokeColor=#b85450;" vertex="1" parent="7cgMG7bWDwLEBmEkMe4G-1">
          <mxGeometry x="340" y="580" width="50" height="50" as="geometry" />
        </mxCell>
        <mxCell id="7cgMG7bWDwLEBmEkMe4G-37" style="edgeStyle=orthogonalEdgeStyle;rounded=0;orthogonalLoop=1;jettySize=auto;html=1;startArrow=none;startFill=0;endArrow=classic;endFill=1;" edge="1" parent="7cgMG7bWDwLEBmEkMe4G-1" source="7cgMG7bWDwLEBmEkMe4G-39">
          <mxGeometry relative="1" as="geometry">
            <mxPoint x="380" y="360" as="targetPoint" />
            <Array as="points">
              <mxPoint x="380" y="505" />
            </Array>
          </mxGeometry>
        </mxCell>
        <mxCell id="7cgMG7bWDwLEBmEkMe4G-38" value="Painel" style="edgeLabel;html=1;align=center;verticalAlign=middle;resizable=0;points=[];" vertex="1" connectable="0" parent="7cgMG7bWDwLEBmEkMe4G-37">
          <mxGeometry x="-0.6162" y="-4" relative="1" as="geometry">
            <mxPoint x="24" y="-4" as="offset" />
          </mxGeometry>
        </mxCell>
        <mxCell id="7cgMG7bWDwLEBmEkMe4G-39" value="A4" style="strokeWidth=2;html=1;shape=mxgraph.flowchart.start_2;whiteSpace=wrap;fillColor=#f8cecc;strokeColor=#b85450;" vertex="1" parent="7cgMG7bWDwLEBmEkMe4G-1">
          <mxGeometry x="80" y="480" width="50" height="50" as="geometry" />
        </mxCell>
      </root>
    </mxGraphModel>
  </diagram>
  <diagram id="5XDTFX2tn77X71YzYH9q" name="Flow - Esqueceu Senha">
    <mxGraphModel dx="749" dy="459" grid="1" gridSize="10" guides="1" tooltips="1" connect="1" arrows="1" fold="1" page="1" pageScale="1" pageWidth="827" pageHeight="1169" math="0" shadow="0">
      <root>
        <mxCell id="aZKgM_bTPTZZlVKUjewy-0" />
        <mxCell id="aZKgM_bTPTZZlVKUjewy-1" parent="aZKgM_bTPTZZlVKUjewy-0" />
        <mxCell id="HL3SSk5iy6LnxmmR_4W2-1" value="Página - Esqueceu Senha" style="text;html=1;resizable=0;autosize=1;align=center;verticalAlign=middle;points=[];rounded=0;fontStyle=5;dashed=1;shadow=0;sketch=0;glass=0;fontSize=30;direction=west;rotation=0;" vertex="1" parent="aZKgM_bTPTZZlVKUjewy-1">
          <mxGeometry x="225" y="20" width="380" height="40" as="geometry" />
        </mxCell>
        <mxCell id="HL3SSk5iy6LnxmmR_4W2-6" style="edgeStyle=orthogonalEdgeStyle;rounded=0;orthogonalLoop=1;jettySize=auto;html=1;entryX=0;entryY=0.5;entryDx=0;entryDy=0;startArrow=none;startFill=0;fontSize=11;" edge="1" parent="aZKgM_bTPTZZlVKUjewy-1" source="HL3SSk5iy6LnxmmR_4W2-8" target="HL3SSk5iy6LnxmmR_4W2-11">
          <mxGeometry relative="1" as="geometry" />
        </mxCell>
        <mxCell id="HL3SSk5iy6LnxmmR_4W2-7" value="Preencher &lt;br&gt;Email" style="edgeLabel;html=1;align=center;verticalAlign=middle;resizable=0;points=[];fontSize=11;" vertex="1" connectable="0" parent="HL3SSk5iy6LnxmmR_4W2-6">
          <mxGeometry x="-0.3143" y="2" relative="1" as="geometry">
            <mxPoint x="19.33" y="2" as="offset" />
          </mxGeometry>
        </mxCell>
        <mxCell id="2GZOE9kpkbjTep1cPYGX-2" style="edgeStyle=orthogonalEdgeStyle;rounded=0;orthogonalLoop=1;jettySize=auto;html=1;" edge="1" parent="aZKgM_bTPTZZlVKUjewy-1" source="HL3SSk5iy6LnxmmR_4W2-8" target="2GZOE9kpkbjTep1cPYGX-0">
          <mxGeometry relative="1" as="geometry" />
        </mxCell>
        <mxCell id="2GZOE9kpkbjTep1cPYGX-3" value="Notificação" style="edgeLabel;html=1;align=center;verticalAlign=middle;resizable=0;points=[];" vertex="1" connectable="0" parent="2GZOE9kpkbjTep1cPYGX-2">
          <mxGeometry x="0.3268" y="-1" relative="1" as="geometry">
            <mxPoint as="offset" />
          </mxGeometry>
        </mxCell>
        <mxCell id="HL3SSk5iy6LnxmmR_4W2-8" value="Esqueceu&lt;br&gt;Senha" style="rounded=1;whiteSpace=wrap;html=1;absoluteArcSize=1;arcSize=14;strokeWidth=2;fillColor=#d5e8d4;strokeColor=#82b366;" vertex="1" parent="aZKgM_bTPTZZlVKUjewy-1">
          <mxGeometry x="111.5" y="255" width="70" height="60" as="geometry" />
        </mxCell>
        <mxCell id="HL3SSk5iy6LnxmmR_4W2-9" style="edgeStyle=orthogonalEdgeStyle;rounded=0;orthogonalLoop=1;jettySize=auto;html=1;entryX=0;entryY=0.5;entryDx=0;entryDy=0;startArrow=none;startFill=0;fontSize=11;" edge="1" parent="aZKgM_bTPTZZlVKUjewy-1" source="HL3SSk5iy6LnxmmR_4W2-11" target="HL3SSk5iy6LnxmmR_4W2-14">
          <mxGeometry relative="1" as="geometry" />
        </mxCell>
        <mxCell id="HL3SSk5iy6LnxmmR_4W2-10" value="Encaminhamento&lt;br&gt;Ajax" style="edgeLabel;html=1;align=center;verticalAlign=middle;resizable=0;points=[];fontSize=11;" vertex="1" connectable="0" parent="HL3SSk5iy6LnxmmR_4W2-9">
          <mxGeometry x="-0.1985" y="2" relative="1" as="geometry">
            <mxPoint x="14.83" y="2" as="offset" />
          </mxGeometry>
        </mxCell>
        <mxCell id="HL3SSk5iy6LnxmmR_4W2-11" value="Formulário" style="shape=parallelogram;html=1;strokeWidth=2;perimeter=parallelogramPerimeter;whiteSpace=wrap;rounded=1;arcSize=12;size=0.23;shadow=0;glass=0;sketch=0;fillColor=#e1d5e7;fontSize=11;strokeColor=#9673a6;" vertex="1" parent="aZKgM_bTPTZZlVKUjewy-1">
          <mxGeometry x="292.5" y="255" width="100" height="60" as="geometry" />
        </mxCell>
        <mxCell id="HL3SSk5iy6LnxmmR_4W2-12" style="edgeStyle=orthogonalEdgeStyle;rounded=0;orthogonalLoop=1;jettySize=auto;html=1;entryX=0;entryY=0.5;entryDx=0;entryDy=0;entryPerimeter=0;startArrow=none;startFill=0;fontSize=11;" edge="1" parent="aZKgM_bTPTZZlVKUjewy-1" source="HL3SSk5iy6LnxmmR_4W2-14" target="HL3SSk5iy6LnxmmR_4W2-17">
          <mxGeometry relative="1" as="geometry" />
        </mxCell>
        <mxCell id="HL3SSk5iy6LnxmmR_4W2-13" value="Consulta MySQL" style="edgeLabel;html=1;align=center;verticalAlign=middle;resizable=0;points=[];fontSize=11;" vertex="1" connectable="0" parent="HL3SSk5iy6LnxmmR_4W2-12">
          <mxGeometry x="-0.2091" relative="1" as="geometry">
            <mxPoint x="6.67" as="offset" />
          </mxGeometry>
        </mxCell>
        <mxCell id="HL3SSk5iy6LnxmmR_4W2-14" value="Validar Email" style="rounded=1;whiteSpace=wrap;html=1;absoluteArcSize=1;arcSize=14;strokeWidth=2;fillColor=#dae8fc;strokeColor=#6c8ebf;" vertex="1" parent="aZKgM_bTPTZZlVKUjewy-1">
          <mxGeometry x="522.5" y="255" width="70" height="60" as="geometry" />
        </mxCell>
        <mxCell id="HL3SSk5iy6LnxmmR_4W2-15" style="edgeStyle=orthogonalEdgeStyle;rounded=0;orthogonalLoop=1;jettySize=auto;html=1;startArrow=none;startFill=0;fontSize=11;" edge="1" parent="aZKgM_bTPTZZlVKUjewy-1" source="HL3SSk5iy6LnxmmR_4W2-17" target="HL3SSk5iy6LnxmmR_4W2-22">
          <mxGeometry relative="1" as="geometry" />
        </mxCell>
        <mxCell id="HL3SSk5iy6LnxmmR_4W2-16" value="Validação Email" style="edgeLabel;html=1;align=center;verticalAlign=middle;resizable=0;points=[];fontSize=11;" vertex="1" connectable="0" parent="HL3SSk5iy6LnxmmR_4W2-15">
          <mxGeometry x="-0.2" y="-2" relative="1" as="geometry">
            <mxPoint as="offset" />
          </mxGeometry>
        </mxCell>
        <mxCell id="HL3SSk5iy6LnxmmR_4W2-17" value="F" style="strokeWidth=2;html=1;shape=mxgraph.flowchart.start_2;whiteSpace=wrap;fillColor=#f8cecc;strokeColor=#b85450;" vertex="1" parent="aZKgM_bTPTZZlVKUjewy-1">
          <mxGeometry x="702.5" y="260" width="50" height="50" as="geometry" />
        </mxCell>
        <mxCell id="HL3SSk5iy6LnxmmR_4W2-18" style="edgeStyle=orthogonalEdgeStyle;rounded=0;orthogonalLoop=1;jettySize=auto;html=1;entryX=0.5;entryY=1;entryDx=0;entryDy=0;startArrow=none;startFill=0;fontSize=11;" edge="1" parent="aZKgM_bTPTZZlVKUjewy-1" source="HL3SSk5iy6LnxmmR_4W2-22" target="HL3SSk5iy6LnxmmR_4W2-8">
          <mxGeometry relative="1" as="geometry" />
        </mxCell>
        <mxCell id="HL3SSk5iy6LnxmmR_4W2-19" value="Não" style="edgeLabel;html=1;align=center;verticalAlign=middle;resizable=0;points=[];fontSize=11;" vertex="1" connectable="0" parent="HL3SSk5iy6LnxmmR_4W2-18">
          <mxGeometry x="-0.1062" y="-2" relative="1" as="geometry">
            <mxPoint as="offset" />
          </mxGeometry>
        </mxCell>
        <mxCell id="HL3SSk5iy6LnxmmR_4W2-20" style="edgeStyle=orthogonalEdgeStyle;rounded=0;orthogonalLoop=1;jettySize=auto;html=1;entryX=1;entryY=0.5;entryDx=0;entryDy=0;startArrow=none;startFill=0;fontSize=11;" edge="1" parent="aZKgM_bTPTZZlVKUjewy-1" source="HL3SSk5iy6LnxmmR_4W2-22" target="HL3SSk5iy6LnxmmR_4W2-25">
          <mxGeometry relative="1" as="geometry" />
        </mxCell>
        <mxCell id="HL3SSk5iy6LnxmmR_4W2-21" value="Sim" style="edgeLabel;html=1;align=center;verticalAlign=middle;resizable=0;points=[];fontSize=11;" vertex="1" connectable="0" parent="HL3SSk5iy6LnxmmR_4W2-20">
          <mxGeometry x="0.2027" y="3" relative="1" as="geometry">
            <mxPoint as="offset" />
          </mxGeometry>
        </mxCell>
        <mxCell id="HL3SSk5iy6LnxmmR_4W2-22" value="Email Válido?" style="strokeWidth=2;html=1;shape=mxgraph.flowchart.decision;whiteSpace=wrap;fillColor=#fff2cc;strokeColor=#d6b656;" vertex="1" parent="aZKgM_bTPTZZlVKUjewy-1">
          <mxGeometry x="677.5" y="400" width="100" height="80" as="geometry" />
        </mxCell>
        <mxCell id="HL3SSk5iy6LnxmmR_4W2-23" style="edgeStyle=orthogonalEdgeStyle;rounded=0;orthogonalLoop=1;jettySize=auto;html=1;startArrow=none;startFill=0;fontSize=11;" edge="1" parent="aZKgM_bTPTZZlVKUjewy-1" source="HL3SSk5iy6LnxmmR_4W2-25" target="HL3SSk5iy6LnxmmR_4W2-28">
          <mxGeometry relative="1" as="geometry" />
        </mxCell>
        <mxCell id="HL3SSk5iy6LnxmmR_4W2-24" value="Notificação" style="edgeLabel;html=1;align=center;verticalAlign=middle;resizable=0;points=[];fontSize=11;" vertex="1" connectable="0" parent="HL3SSk5iy6LnxmmR_4W2-23">
          <mxGeometry x="0.23" y="-2" relative="1" as="geometry">
            <mxPoint x="15.17" y="2" as="offset" />
          </mxGeometry>
        </mxCell>
        <mxCell id="HL3SSk5iy6LnxmmR_4W2-25" value="Enviar Email" style="rounded=1;whiteSpace=wrap;html=1;absoluteArcSize=1;arcSize=14;strokeWidth=2;fillColor=#dae8fc;strokeColor=#6c8ebf;" vertex="1" parent="aZKgM_bTPTZZlVKUjewy-1">
          <mxGeometry x="462.5" y="510" width="70" height="60" as="geometry" />
        </mxCell>
        <mxCell id="HL3SSk5iy6LnxmmR_4W2-26" style="edgeStyle=orthogonalEdgeStyle;rounded=0;orthogonalLoop=1;jettySize=auto;html=1;startArrow=none;startFill=0;endArrow=classic;endFill=1;" edge="1" parent="aZKgM_bTPTZZlVKUjewy-1" source="HL3SSk5iy6LnxmmR_4W2-28" target="HL3SSk5iy6LnxmmR_4W2-8">
          <mxGeometry relative="1" as="geometry" />
        </mxCell>
        <mxCell id="HL3SSk5iy6LnxmmR_4W2-27" value="Focus na Página" style="edgeLabel;html=1;align=center;verticalAlign=middle;resizable=0;points=[];" vertex="1" connectable="0" parent="HL3SSk5iy6LnxmmR_4W2-26">
          <mxGeometry x="-0.4031" y="-1" relative="1" as="geometry">
            <mxPoint x="29.5" y="1" as="offset" />
          </mxGeometry>
        </mxCell>
        <mxCell id="HL3SSk5iy6LnxmmR_4W2-28" value="C" style="strokeWidth=2;html=1;shape=mxgraph.flowchart.start_2;whiteSpace=wrap;fillColor=#f8cecc;strokeColor=#b85450;" vertex="1" parent="aZKgM_bTPTZZlVKUjewy-1">
          <mxGeometry x="312.5" y="515" width="50" height="50" as="geometry" />
        </mxCell>
        <mxCell id="HL3SSk5iy6LnxmmR_4W2-29" style="edgeStyle=orthogonalEdgeStyle;rounded=0;orthogonalLoop=1;jettySize=auto;html=1;entryX=0;entryY=0.5;entryDx=0;entryDy=0;startArrow=classic;startFill=1;fontSize=11;exitX=0.5;exitY=0;exitDx=0;exitDy=0;exitPerimeter=0;" edge="1" parent="aZKgM_bTPTZZlVKUjewy-1" source="HL3SSk5iy6LnxmmR_4W2-31" target="HL3SSk5iy6LnxmmR_4W2-8">
          <mxGeometry relative="1" as="geometry">
            <Array as="points">
              <mxPoint x="55" y="285" />
            </Array>
          </mxGeometry>
        </mxCell>
        <mxCell id="HL3SSk5iy6LnxmmR_4W2-30" value="Redirecionamento" style="edgeLabel;html=1;align=center;verticalAlign=middle;resizable=0;points=[];fontSize=11;" vertex="1" connectable="0" parent="HL3SSk5iy6LnxmmR_4W2-29">
          <mxGeometry x="0.0118" relative="1" as="geometry">
            <mxPoint y="17.06" as="offset" />
          </mxGeometry>
        </mxCell>
        <mxCell id="HL3SSk5iy6LnxmmR_4W2-31" value="A0" style="strokeWidth=2;html=1;shape=mxgraph.flowchart.start_2;whiteSpace=wrap;fillColor=#f8cecc;strokeColor=#b85450;" vertex="1" parent="aZKgM_bTPTZZlVKUjewy-1">
          <mxGeometry x="30" y="400" width="50" height="50" as="geometry" />
        </mxCell>
        <mxCell id="2GZOE9kpkbjTep1cPYGX-0" value="B" style="strokeWidth=2;html=1;shape=mxgraph.flowchart.start_2;whiteSpace=wrap;fillColor=#f8cecc;strokeColor=#b85450;" vertex="1" parent="aZKgM_bTPTZZlVKUjewy-1">
          <mxGeometry x="122.25" y="120" width="48.5" height="50" as="geometry" />
        </mxCell>
      </root>
    </mxGraphModel>
  </diagram>
  <diagram id="vi9VP_A6JeXLfbCStdie" name="Flow - Cadastro Usuário">
    <mxGraphModel dx="749" dy="459" grid="1" gridSize="10" guides="1" tooltips="1" connect="1" arrows="1" fold="1" page="1" pageScale="1" pageWidth="827" pageHeight="1169" math="0" shadow="0">
      <root>
        <mxCell id="YGYt8qWpba5Uw6f1zcu4-0" />
        <mxCell id="YGYt8qWpba5Uw6f1zcu4-1" parent="YGYt8qWpba5Uw6f1zcu4-0" />
        <mxCell id="YGYt8qWpba5Uw6f1zcu4-2" value="Página - Cadastro" style="text;html=1;resizable=0;autosize=1;align=center;verticalAlign=middle;points=[];rounded=0;fontStyle=5;dashed=1;shadow=0;sketch=0;glass=0;fontSize=30;direction=west;rotation=0;" vertex="1" parent="YGYt8qWpba5Uw6f1zcu4-1">
          <mxGeometry x="280" y="20" width="270" height="40" as="geometry" />
        </mxCell>
        <mxCell id="YGYt8qWpba5Uw6f1zcu4-7" style="edgeStyle=orthogonalEdgeStyle;rounded=0;orthogonalLoop=1;jettySize=auto;html=1;entryX=0;entryY=0.5;entryDx=0;entryDy=0;startArrow=none;startFill=0;fontSize=11;" edge="1" parent="YGYt8qWpba5Uw6f1zcu4-1" source="YGYt8qWpba5Uw6f1zcu4-9" target="YGYt8qWpba5Uw6f1zcu4-17">
          <mxGeometry relative="1" as="geometry" />
        </mxCell>
        <mxCell id="YGYt8qWpba5Uw6f1zcu4-8" value="Preencher:&lt;br&gt;Nickname,&lt;br&gt;Email,&lt;br&gt;Senha,&lt;br&gt;Confirmar Senha," style="edgeLabel;html=1;align=center;verticalAlign=middle;resizable=0;points=[];fontSize=11;" vertex="1" connectable="0" parent="YGYt8qWpba5Uw6f1zcu4-7">
          <mxGeometry x="-0.2735" y="-3" relative="1" as="geometry">
            <mxPoint x="13.5" y="-3" as="offset" />
          </mxGeometry>
        </mxCell>
        <mxCell id="YGYt8qWpba5Uw6f1zcu4-58" style="edgeStyle=orthogonalEdgeStyle;rounded=0;orthogonalLoop=1;jettySize=auto;html=1;entryX=0.5;entryY=1;entryDx=0;entryDy=0;entryPerimeter=0;" edge="1" parent="YGYt8qWpba5Uw6f1zcu4-1" source="YGYt8qWpba5Uw6f1zcu4-9" target="YGYt8qWpba5Uw6f1zcu4-11">
          <mxGeometry relative="1" as="geometry" />
        </mxCell>
        <mxCell id="YGYt8qWpba5Uw6f1zcu4-59" value="Notificação" style="edgeLabel;html=1;align=center;verticalAlign=middle;resizable=0;points=[];" vertex="1" connectable="0" parent="YGYt8qWpba5Uw6f1zcu4-58">
          <mxGeometry x="0.3204" relative="1" as="geometry">
            <mxPoint y="8" as="offset" />
          </mxGeometry>
        </mxCell>
        <mxCell id="YGYt8qWpba5Uw6f1zcu4-9" value="Cadastro Inicial" style="rounded=1;whiteSpace=wrap;html=1;absoluteArcSize=1;arcSize=14;strokeWidth=2;fillColor=#d5e8d4;strokeColor=#82b366;" vertex="1" parent="YGYt8qWpba5Uw6f1zcu4-1">
          <mxGeometry x="111.5" y="255" width="70" height="60" as="geometry" />
        </mxCell>
        <mxCell id="YGYt8qWpba5Uw6f1zcu4-11" value="B" style="strokeWidth=2;html=1;shape=mxgraph.flowchart.start_2;whiteSpace=wrap;fillColor=#f8cecc;strokeColor=#b85450;" vertex="1" parent="YGYt8qWpba5Uw6f1zcu4-1">
          <mxGeometry x="121.5" y="110" width="50" height="50" as="geometry" />
        </mxCell>
        <mxCell id="YGYt8qWpba5Uw6f1zcu4-12" style="edgeStyle=orthogonalEdgeStyle;rounded=0;orthogonalLoop=1;jettySize=auto;html=1;entryX=0;entryY=0.5;entryDx=0;entryDy=0;startArrow=classic;startFill=1;fontSize=11;exitX=0.5;exitY=0;exitDx=0;exitDy=0;exitPerimeter=0;" edge="1" parent="YGYt8qWpba5Uw6f1zcu4-1" source="YGYt8qWpba5Uw6f1zcu4-14" target="YGYt8qWpba5Uw6f1zcu4-9">
          <mxGeometry relative="1" as="geometry">
            <mxPoint x="55" y="390" as="sourcePoint" />
          </mxGeometry>
        </mxCell>
        <mxCell id="YGYt8qWpba5Uw6f1zcu4-13" value="Redirecionamento" style="edgeLabel;html=1;align=center;verticalAlign=middle;resizable=0;points=[];fontSize=11;" vertex="1" connectable="0" parent="YGYt8qWpba5Uw6f1zcu4-12">
          <mxGeometry x="0.0029" y="-2" relative="1" as="geometry">
            <mxPoint x="-4.5" y="16" as="offset" />
          </mxGeometry>
        </mxCell>
        <mxCell id="YGYt8qWpba5Uw6f1zcu4-14" value="A1" style="strokeWidth=2;html=1;shape=mxgraph.flowchart.start_2;whiteSpace=wrap;fillColor=#f8cecc;strokeColor=#b85450;" vertex="1" parent="YGYt8qWpba5Uw6f1zcu4-1">
          <mxGeometry x="30" y="400" width="50" height="50" as="geometry" />
        </mxCell>
        <mxCell id="YGYt8qWpba5Uw6f1zcu4-15" style="edgeStyle=orthogonalEdgeStyle;rounded=0;orthogonalLoop=1;jettySize=auto;html=1;entryX=0;entryY=0.5;entryDx=0;entryDy=0;startArrow=none;startFill=0;fontSize=11;" edge="1" parent="YGYt8qWpba5Uw6f1zcu4-1" source="YGYt8qWpba5Uw6f1zcu4-17" target="YGYt8qWpba5Uw6f1zcu4-19">
          <mxGeometry relative="1" as="geometry" />
        </mxCell>
        <mxCell id="YGYt8qWpba5Uw6f1zcu4-16" value="JS Interno" style="edgeLabel;html=1;align=center;verticalAlign=middle;resizable=0;points=[];fontSize=11;" vertex="1" connectable="0" parent="YGYt8qWpba5Uw6f1zcu4-15">
          <mxGeometry x="0.2646" y="-4" relative="1" as="geometry">
            <mxPoint x="-19.5" y="-4" as="offset" />
          </mxGeometry>
        </mxCell>
        <mxCell id="YGYt8qWpba5Uw6f1zcu4-17" value="Formulário" style="shape=parallelogram;html=1;strokeWidth=2;perimeter=parallelogramPerimeter;whiteSpace=wrap;rounded=1;arcSize=12;size=0.23;shadow=0;glass=0;sketch=0;fillColor=#e1d5e7;fontSize=11;strokeColor=#9673a6;" vertex="1" parent="YGYt8qWpba5Uw6f1zcu4-1">
          <mxGeometry x="350" y="255" width="100" height="60" as="geometry" />
        </mxCell>
        <mxCell id="YGYt8qWpba5Uw6f1zcu4-18" style="edgeStyle=orthogonalEdgeStyle;rounded=0;orthogonalLoop=1;jettySize=auto;html=1;entryX=0.5;entryY=0;entryDx=0;entryDy=0;entryPerimeter=0;startArrow=none;startFill=0;fontSize=11;" edge="1" parent="YGYt8qWpba5Uw6f1zcu4-1" source="YGYt8qWpba5Uw6f1zcu4-19" target="YGYt8qWpba5Uw6f1zcu4-24">
          <mxGeometry relative="1" as="geometry" />
        </mxCell>
        <mxCell id="YGYt8qWpba5Uw6f1zcu4-19" value="Validar Dados" style="rounded=1;whiteSpace=wrap;html=1;absoluteArcSize=1;arcSize=14;strokeWidth=2;fillColor=#dae8fc;strokeColor=#6c8ebf;" vertex="1" parent="YGYt8qWpba5Uw6f1zcu4-1">
          <mxGeometry x="550" y="255" width="70" height="60" as="geometry" />
        </mxCell>
        <mxCell id="YGYt8qWpba5Uw6f1zcu4-20" style="edgeStyle=orthogonalEdgeStyle;rounded=0;orthogonalLoop=1;jettySize=auto;html=1;startArrow=none;startFill=0;fontSize=11;" edge="1" parent="YGYt8qWpba5Uw6f1zcu4-1" source="YGYt8qWpba5Uw6f1zcu4-24" target="YGYt8qWpba5Uw6f1zcu4-9">
          <mxGeometry relative="1" as="geometry" />
        </mxCell>
        <mxCell id="YGYt8qWpba5Uw6f1zcu4-21" value="Não" style="edgeLabel;html=1;align=center;verticalAlign=middle;resizable=0;points=[];fontSize=11;" vertex="1" connectable="0" parent="YGYt8qWpba5Uw6f1zcu4-20">
          <mxGeometry x="-0.4766" relative="1" as="geometry">
            <mxPoint as="offset" />
          </mxGeometry>
        </mxCell>
        <mxCell id="YGYt8qWpba5Uw6f1zcu4-22" style="edgeStyle=orthogonalEdgeStyle;rounded=0;orthogonalLoop=1;jettySize=auto;html=1;entryX=1;entryY=0.5;entryDx=0;entryDy=0;startArrow=none;startFill=0;fontSize=11;" edge="1" parent="YGYt8qWpba5Uw6f1zcu4-1" source="YGYt8qWpba5Uw6f1zcu4-24" target="YGYt8qWpba5Uw6f1zcu4-27">
          <mxGeometry relative="1" as="geometry" />
        </mxCell>
        <mxCell id="YGYt8qWpba5Uw6f1zcu4-23" value="Sim (Ajax)" style="edgeLabel;html=1;align=center;verticalAlign=middle;resizable=0;points=[];fontSize=11;" vertex="1" connectable="0" parent="YGYt8qWpba5Uw6f1zcu4-22">
          <mxGeometry x="0.139" y="2" relative="1" as="geometry">
            <mxPoint x="1" as="offset" />
          </mxGeometry>
        </mxCell>
        <mxCell id="YGYt8qWpba5Uw6f1zcu4-24" value="Dados Válidos?" style="strokeWidth=2;html=1;shape=mxgraph.flowchart.decision;whiteSpace=wrap;fillColor=#fff2cc;strokeColor=#d6b656;" vertex="1" parent="YGYt8qWpba5Uw6f1zcu4-1">
          <mxGeometry x="670" y="340" width="100" height="80" as="geometry" />
        </mxCell>
        <mxCell id="YGYt8qWpba5Uw6f1zcu4-25" style="edgeStyle=orthogonalEdgeStyle;rounded=0;orthogonalLoop=1;jettySize=auto;html=1;entryX=1;entryY=0.5;entryDx=0;entryDy=0;entryPerimeter=0;startArrow=none;startFill=0;endArrow=classic;endFill=1;exitX=0.5;exitY=1;exitDx=0;exitDy=0;" edge="1" parent="YGYt8qWpba5Uw6f1zcu4-1" source="YGYt8qWpba5Uw6f1zcu4-27" target="YGYt8qWpba5Uw6f1zcu4-56">
          <mxGeometry relative="1" as="geometry" />
        </mxCell>
        <mxCell id="YGYt8qWpba5Uw6f1zcu4-26" value="Select MySQL" style="edgeLabel;html=1;align=center;verticalAlign=middle;resizable=0;points=[];" vertex="1" connectable="0" parent="YGYt8qWpba5Uw6f1zcu4-25">
          <mxGeometry x="-0.2234" y="3" relative="1" as="geometry">
            <mxPoint as="offset" />
          </mxGeometry>
        </mxCell>
        <mxCell id="YGYt8qWpba5Uw6f1zcu4-27" value="Validar se Email já está Registrado + Validação Dados" style="rounded=1;whiteSpace=wrap;html=1;absoluteArcSize=1;arcSize=14;strokeWidth=2;fillColor=#dae8fc;strokeColor=#6c8ebf;" vertex="1" parent="YGYt8qWpba5Uw6f1zcu4-1">
          <mxGeometry x="490" y="440" width="110" height="80" as="geometry" />
        </mxCell>
        <mxCell id="YGYt8qWpba5Uw6f1zcu4-28" style="edgeStyle=orthogonalEdgeStyle;rounded=0;orthogonalLoop=1;jettySize=auto;html=1;entryX=0.5;entryY=1;entryDx=0;entryDy=0;startArrow=none;startFill=0;fontSize=11;" edge="1" parent="YGYt8qWpba5Uw6f1zcu4-1" source="YGYt8qWpba5Uw6f1zcu4-32" target="YGYt8qWpba5Uw6f1zcu4-9">
          <mxGeometry relative="1" as="geometry" />
        </mxCell>
        <mxCell id="YGYt8qWpba5Uw6f1zcu4-29" value="Sim" style="edgeLabel;html=1;align=center;verticalAlign=middle;resizable=0;points=[];fontSize=11;" vertex="1" connectable="0" parent="YGYt8qWpba5Uw6f1zcu4-28">
          <mxGeometry x="-0.4425" y="-2" relative="1" as="geometry">
            <mxPoint x="-57.5" y="-38" as="offset" />
          </mxGeometry>
        </mxCell>
        <mxCell id="YGYt8qWpba5Uw6f1zcu4-30" style="edgeStyle=orthogonalEdgeStyle;rounded=0;orthogonalLoop=1;jettySize=auto;html=1;entryX=0.25;entryY=0;entryDx=0;entryDy=0;startArrow=none;startFill=0;fontSize=11;" edge="1" parent="YGYt8qWpba5Uw6f1zcu4-1" source="YGYt8qWpba5Uw6f1zcu4-32" target="YGYt8qWpba5Uw6f1zcu4-35">
          <mxGeometry relative="1" as="geometry" />
        </mxCell>
        <mxCell id="YGYt8qWpba5Uw6f1zcu4-31" value="Não" style="edgeLabel;html=1;align=center;verticalAlign=middle;resizable=0;points=[];fontSize=11;" vertex="1" connectable="0" parent="YGYt8qWpba5Uw6f1zcu4-30">
          <mxGeometry x="0.3781" y="3" relative="1" as="geometry">
            <mxPoint x="-4" y="15.5" as="offset" />
          </mxGeometry>
        </mxCell>
        <mxCell id="YGYt8qWpba5Uw6f1zcu4-32" value="Email Registrado?" style="strokeWidth=2;html=1;shape=mxgraph.flowchart.decision;whiteSpace=wrap;fillColor=#fff2cc;strokeColor=#d6b656;" vertex="1" parent="YGYt8qWpba5Uw6f1zcu4-1">
          <mxGeometry x="290" y="440" width="100" height="80" as="geometry" />
        </mxCell>
        <mxCell id="YGYt8qWpba5Uw6f1zcu4-33" style="edgeStyle=orthogonalEdgeStyle;rounded=0;orthogonalLoop=1;jettySize=auto;html=1;startArrow=none;startFill=0;fontSize=11;" edge="1" parent="YGYt8qWpba5Uw6f1zcu4-1" source="YGYt8qWpba5Uw6f1zcu4-35" target="YGYt8qWpba5Uw6f1zcu4-43">
          <mxGeometry relative="1" as="geometry" />
        </mxCell>
        <mxCell id="YGYt8qWpba5Uw6f1zcu4-34" value="Inserção&lt;br&gt;MySQL" style="edgeLabel;html=1;align=center;verticalAlign=middle;resizable=0;points=[];fontSize=11;" vertex="1" connectable="0" parent="YGYt8qWpba5Uw6f1zcu4-33">
          <mxGeometry x="-0.3091" y="1" relative="1" as="geometry">
            <mxPoint x="12" y="1" as="offset" />
          </mxGeometry>
        </mxCell>
        <mxCell id="YGYt8qWpba5Uw6f1zcu4-35" value="Cadastrar Usuário" style="rounded=1;whiteSpace=wrap;html=1;absoluteArcSize=1;arcSize=14;strokeWidth=2;fillColor=#dae8fc;strokeColor=#6c8ebf;" vertex="1" parent="YGYt8qWpba5Uw6f1zcu4-1">
          <mxGeometry x="130" y="655" width="70" height="60" as="geometry" />
        </mxCell>
        <mxCell id="YGYt8qWpba5Uw6f1zcu4-36" style="edgeStyle=orthogonalEdgeStyle;rounded=0;orthogonalLoop=1;jettySize=auto;html=1;startArrow=none;startFill=0;fontSize=11;" edge="1" parent="YGYt8qWpba5Uw6f1zcu4-1" source="YGYt8qWpba5Uw6f1zcu4-38" target="YGYt8qWpba5Uw6f1zcu4-46">
          <mxGeometry relative="1" as="geometry">
            <mxPoint x="680" y="685" as="targetPoint" />
          </mxGeometry>
        </mxCell>
        <mxCell id="YGYt8qWpba5Uw6f1zcu4-37" value="Preencher:&lt;br&gt;Foto Perfil" style="edgeLabel;html=1;align=center;verticalAlign=middle;resizable=0;points=[];fontSize=11;" vertex="1" connectable="0" parent="YGYt8qWpba5Uw6f1zcu4-36">
          <mxGeometry x="-0.2727" relative="1" as="geometry">
            <mxPoint x="10" as="offset" />
          </mxGeometry>
        </mxCell>
        <mxCell id="YGYt8qWpba5Uw6f1zcu4-38" value="Cadastro Final" style="rounded=1;whiteSpace=wrap;html=1;absoluteArcSize=1;arcSize=14;strokeWidth=2;fillColor=#d5e8d4;strokeColor=#82b366;" vertex="1" parent="YGYt8qWpba5Uw6f1zcu4-1">
          <mxGeometry x="500" y="655" width="70" height="60" as="geometry" />
        </mxCell>
        <mxCell id="YGYt8qWpba5Uw6f1zcu4-39" style="edgeStyle=orthogonalEdgeStyle;rounded=0;orthogonalLoop=1;jettySize=auto;html=1;startArrow=none;startFill=0;fontSize=11;" edge="1" parent="YGYt8qWpba5Uw6f1zcu4-1" source="YGYt8qWpba5Uw6f1zcu4-43" target="YGYt8qWpba5Uw6f1zcu4-38">
          <mxGeometry relative="1" as="geometry" />
        </mxCell>
        <mxCell id="YGYt8qWpba5Uw6f1zcu4-40" value="Redirecionamento" style="edgeLabel;html=1;align=center;verticalAlign=middle;resizable=0;points=[];fontSize=11;" vertex="1" connectable="0" parent="YGYt8qWpba5Uw6f1zcu4-39">
          <mxGeometry x="-0.2714" y="3" relative="1" as="geometry">
            <mxPoint x="9" y="3" as="offset" />
          </mxGeometry>
        </mxCell>
        <mxCell id="YGYt8qWpba5Uw6f1zcu4-41" style="edgeStyle=orthogonalEdgeStyle;rounded=0;orthogonalLoop=1;jettySize=auto;html=1;entryX=0;entryY=0.5;entryDx=0;entryDy=0;entryPerimeter=0;startArrow=none;startFill=0;endArrow=classic;endFill=1;exitX=0.5;exitY=1;exitDx=0;exitDy=0;exitPerimeter=0;" edge="1" parent="YGYt8qWpba5Uw6f1zcu4-1" source="YGYt8qWpba5Uw6f1zcu4-43" target="YGYt8qWpba5Uw6f1zcu4-57">
          <mxGeometry relative="1" as="geometry" />
        </mxCell>
        <mxCell id="YGYt8qWpba5Uw6f1zcu4-42" value="Inserção&lt;br&gt;Neo4J" style="edgeLabel;html=1;align=center;verticalAlign=middle;resizable=0;points=[];" vertex="1" connectable="0" parent="YGYt8qWpba5Uw6f1zcu4-41">
          <mxGeometry x="-0.46" y="2" relative="1" as="geometry">
            <mxPoint as="offset" />
          </mxGeometry>
        </mxCell>
        <mxCell id="YGYt8qWpba5Uw6f1zcu4-43" value="F" style="strokeWidth=2;html=1;shape=mxgraph.flowchart.start_2;whiteSpace=wrap;fillColor=#f8cecc;strokeColor=#b85450;" vertex="1" parent="YGYt8qWpba5Uw6f1zcu4-1">
          <mxGeometry x="310" y="660" width="50" height="50" as="geometry" />
        </mxCell>
        <mxCell id="YGYt8qWpba5Uw6f1zcu4-44" style="edgeStyle=orthogonalEdgeStyle;rounded=0;orthogonalLoop=1;jettySize=auto;html=1;startArrow=none;startFill=0;fontSize=11;" edge="1" parent="YGYt8qWpba5Uw6f1zcu4-1" source="YGYt8qWpba5Uw6f1zcu4-46" target="YGYt8qWpba5Uw6f1zcu4-49">
          <mxGeometry relative="1" as="geometry" />
        </mxCell>
        <mxCell id="YGYt8qWpba5Uw6f1zcu4-45" value="Salvar Foto Perfil" style="edgeLabel;html=1;align=center;verticalAlign=middle;resizable=0;points=[];fontSize=11;" vertex="1" connectable="0" parent="YGYt8qWpba5Uw6f1zcu4-44">
          <mxGeometry x="-0.2253" y="-1" relative="1" as="geometry">
            <mxPoint x="1" y="8" as="offset" />
          </mxGeometry>
        </mxCell>
        <mxCell id="YGYt8qWpba5Uw6f1zcu4-46" value="Formulário" style="shape=parallelogram;html=1;strokeWidth=2;perimeter=parallelogramPerimeter;whiteSpace=wrap;rounded=1;arcSize=12;size=0.23;shadow=0;glass=0;sketch=0;fillColor=#e1d5e7;fontSize=11;strokeColor=#9673a6;" vertex="1" parent="YGYt8qWpba5Uw6f1zcu4-1">
          <mxGeometry x="690" y="650" width="100" height="60" as="geometry" />
        </mxCell>
        <mxCell id="YGYt8qWpba5Uw6f1zcu4-47" style="edgeStyle=orthogonalEdgeStyle;rounded=0;orthogonalLoop=1;jettySize=auto;html=1;startArrow=none;startFill=0;fontSize=11;" edge="1" parent="YGYt8qWpba5Uw6f1zcu4-1" source="YGYt8qWpba5Uw6f1zcu4-49" target="YGYt8qWpba5Uw6f1zcu4-52">
          <mxGeometry relative="1" as="geometry" />
        </mxCell>
        <mxCell id="YGYt8qWpba5Uw6f1zcu4-48" value="Inserção&lt;br&gt;MySQL" style="edgeLabel;html=1;align=center;verticalAlign=middle;resizable=0;points=[];fontSize=11;" vertex="1" connectable="0" parent="YGYt8qWpba5Uw6f1zcu4-47">
          <mxGeometry x="0.1826" y="1" relative="1" as="geometry">
            <mxPoint x="13" y="-1" as="offset" />
          </mxGeometry>
        </mxCell>
        <mxCell id="YGYt8qWpba5Uw6f1zcu4-49" value="Cadastrar Usuário" style="rounded=1;whiteSpace=wrap;html=1;absoluteArcSize=1;arcSize=14;strokeWidth=2;fillColor=#dae8fc;strokeColor=#6c8ebf;" vertex="1" parent="YGYt8qWpba5Uw6f1zcu4-1">
          <mxGeometry x="705" y="805" width="70" height="60" as="geometry" />
        </mxCell>
        <mxCell id="YGYt8qWpba5Uw6f1zcu4-50" style="edgeStyle=orthogonalEdgeStyle;rounded=0;orthogonalLoop=1;jettySize=auto;html=1;entryX=1;entryY=0.5;entryDx=0;entryDy=0;entryPerimeter=0;startArrow=none;startFill=0;fontSize=11;" edge="1" parent="YGYt8qWpba5Uw6f1zcu4-1" source="YGYt8qWpba5Uw6f1zcu4-52" target="YGYt8qWpba5Uw6f1zcu4-53">
          <mxGeometry relative="1" as="geometry">
            <Array as="points">
              <mxPoint x="440" y="835" />
              <mxPoint x="440" y="835" />
            </Array>
          </mxGeometry>
        </mxCell>
        <mxCell id="YGYt8qWpba5Uw6f1zcu4-51" value="Redirecionamento" style="edgeLabel;html=1;align=center;verticalAlign=middle;resizable=0;points=[];fontSize=11;" vertex="1" connectable="0" parent="YGYt8qWpba5Uw6f1zcu4-50">
          <mxGeometry x="0.2769" y="-3" relative="1" as="geometry">
            <mxPoint x="23" y="3" as="offset" />
          </mxGeometry>
        </mxCell>
        <mxCell id="YGYt8qWpba5Uw6f1zcu4-52" value="F" style="strokeWidth=2;html=1;shape=mxgraph.flowchart.start_2;whiteSpace=wrap;fillColor=#f8cecc;strokeColor=#b85450;" vertex="1" parent="YGYt8qWpba5Uw6f1zcu4-1">
          <mxGeometry x="530" y="810" width="50" height="50" as="geometry" />
        </mxCell>
        <mxCell id="YGYt8qWpba5Uw6f1zcu4-53" value="A4" style="strokeWidth=2;html=1;shape=mxgraph.flowchart.start_2;whiteSpace=wrap;fillColor=#f8cecc;strokeColor=#b85450;" vertex="1" parent="YGYt8qWpba5Uw6f1zcu4-1">
          <mxGeometry x="350" y="810" width="50" height="50" as="geometry" />
        </mxCell>
        <mxCell id="YGYt8qWpba5Uw6f1zcu4-54" style="edgeStyle=orthogonalEdgeStyle;rounded=0;orthogonalLoop=1;jettySize=auto;html=1;entryX=0.5;entryY=1;entryDx=0;entryDy=0;entryPerimeter=0;startArrow=none;startFill=0;endArrow=classic;endFill=1;" edge="1" parent="YGYt8qWpba5Uw6f1zcu4-1" source="YGYt8qWpba5Uw6f1zcu4-56" target="YGYt8qWpba5Uw6f1zcu4-32">
          <mxGeometry relative="1" as="geometry" />
        </mxCell>
        <mxCell id="YGYt8qWpba5Uw6f1zcu4-55" value="Validação" style="edgeLabel;html=1;align=center;verticalAlign=middle;resizable=0;points=[];" vertex="1" connectable="0" parent="YGYt8qWpba5Uw6f1zcu4-54">
          <mxGeometry x="0.2146" y="-2" relative="1" as="geometry">
            <mxPoint as="offset" />
          </mxGeometry>
        </mxCell>
        <mxCell id="YGYt8qWpba5Uw6f1zcu4-56" value="F" style="strokeWidth=2;html=1;shape=mxgraph.flowchart.start_2;whiteSpace=wrap;fillColor=#f8cecc;strokeColor=#b85450;" vertex="1" parent="YGYt8qWpba5Uw6f1zcu4-1">
          <mxGeometry x="414" y="585" width="50" height="50" as="geometry" />
        </mxCell>
        <mxCell id="YGYt8qWpba5Uw6f1zcu4-57" value="E" style="strokeWidth=2;html=1;shape=mxgraph.flowchart.start_2;whiteSpace=wrap;fillColor=#f8cecc;strokeColor=#b85450;" vertex="1" parent="YGYt8qWpba5Uw6f1zcu4-1">
          <mxGeometry x="410" y="730" width="50" height="50" as="geometry" />
        </mxCell>
      </root>
    </mxGraphModel>
  </diagram>
  <diagram id="0MPyDHGdA603GVSj41aG" name="Flow - Alteração Senha">
    <mxGraphModel dx="749" dy="459" grid="1" gridSize="10" guides="1" tooltips="1" connect="1" arrows="1" fold="1" page="1" pageScale="1" pageWidth="827" pageHeight="1169" math="0" shadow="0">
      <root>
        <mxCell id="MaTm9JHjs4rxVad7Ua8J-0" />
        <mxCell id="MaTm9JHjs4rxVad7Ua8J-1" parent="MaTm9JHjs4rxVad7Ua8J-0" />
        <mxCell id="MaTm9JHjs4rxVad7Ua8J-2" value="Página - Alterar Senha" style="text;html=1;resizable=0;autosize=1;align=center;verticalAlign=middle;points=[];rounded=0;fontStyle=5;dashed=1;shadow=0;sketch=0;glass=0;fontSize=30;direction=west;rotation=0;" vertex="1" parent="MaTm9JHjs4rxVad7Ua8J-1">
          <mxGeometry x="250" y="20" width="330" height="40" as="geometry" />
        </mxCell>
        <mxCell id="MaTm9JHjs4rxVad7Ua8J-7" style="edgeStyle=orthogonalEdgeStyle;rounded=0;orthogonalLoop=1;jettySize=auto;html=1;entryX=0;entryY=0.5;entryDx=0;entryDy=0;" edge="1" parent="MaTm9JHjs4rxVad7Ua8J-1" source="MaTm9JHjs4rxVad7Ua8J-11" target="MaTm9JHjs4rxVad7Ua8J-19">
          <mxGeometry relative="1" as="geometry" />
        </mxCell>
        <mxCell id="MaTm9JHjs4rxVad7Ua8J-8" value="Gerar Novo&lt;br&gt;Código" style="edgeLabel;html=1;align=center;verticalAlign=middle;resizable=0;points=[];" vertex="1" connectable="0" parent="MaTm9JHjs4rxVad7Ua8J-7">
          <mxGeometry x="-0.2147" y="-1" relative="1" as="geometry">
            <mxPoint x="14.5" y="1.5" as="offset" />
          </mxGeometry>
        </mxCell>
        <mxCell id="MaTm9JHjs4rxVad7Ua8J-9" style="edgeStyle=orthogonalEdgeStyle;rounded=0;orthogonalLoop=1;jettySize=auto;html=1;exitX=0.268;exitY=0.846;exitDx=0;exitDy=0;exitPerimeter=0;" edge="1" parent="MaTm9JHjs4rxVad7Ua8J-1" source="MaTm9JHjs4rxVad7Ua8J-11" target="MaTm9JHjs4rxVad7Ua8J-28">
          <mxGeometry relative="1" as="geometry" />
        </mxCell>
        <mxCell id="MaTm9JHjs4rxVad7Ua8J-10" value="Preencher: Senha,&lt;br&gt;Confirmar Senha,&lt;br&gt;Código" style="edgeLabel;html=1;align=center;verticalAlign=middle;resizable=0;points=[];" vertex="1" connectable="0" parent="MaTm9JHjs4rxVad7Ua8J-9">
          <mxGeometry x="-0.2945" y="-2" relative="1" as="geometry">
            <mxPoint y="11" as="offset" />
          </mxGeometry>
        </mxCell>
        <mxCell id="MaTm9JHjs4rxVad7Ua8J-46" style="edgeStyle=orthogonalEdgeStyle;rounded=0;orthogonalLoop=1;jettySize=auto;html=1;" edge="1" parent="MaTm9JHjs4rxVad7Ua8J-1" source="MaTm9JHjs4rxVad7Ua8J-11" target="MaTm9JHjs4rxVad7Ua8J-13">
          <mxGeometry relative="1" as="geometry" />
        </mxCell>
        <mxCell id="MaTm9JHjs4rxVad7Ua8J-47" value="Notificação" style="edgeLabel;html=1;align=center;verticalAlign=middle;resizable=0;points=[];" vertex="1" connectable="0" parent="MaTm9JHjs4rxVad7Ua8J-46">
          <mxGeometry x="0.3204" y="-2" relative="1" as="geometry">
            <mxPoint x="-2.05" y="8" as="offset" />
          </mxGeometry>
        </mxCell>
        <mxCell id="MaTm9JHjs4rxVad7Ua8J-11" value="Alterar Senha" style="rounded=1;whiteSpace=wrap;html=1;absoluteArcSize=1;arcSize=14;strokeWidth=2;fillColor=#d5e8d4;strokeColor=#82b366;" vertex="1" parent="MaTm9JHjs4rxVad7Ua8J-1">
          <mxGeometry x="229" y="245" width="78.5" height="65" as="geometry" />
        </mxCell>
        <mxCell id="MaTm9JHjs4rxVad7Ua8J-13" value="B" style="strokeWidth=2;html=1;shape=mxgraph.flowchart.start_2;whiteSpace=wrap;fillColor=#f8cecc;strokeColor=#b85450;" vertex="1" parent="MaTm9JHjs4rxVad7Ua8J-1">
          <mxGeometry x="243.25" y="100" width="50" height="50" as="geometry" />
        </mxCell>
        <mxCell id="MaTm9JHjs4rxVad7Ua8J-14" style="edgeStyle=orthogonalEdgeStyle;rounded=0;orthogonalLoop=1;jettySize=auto;html=1;entryX=0;entryY=0.5;entryDx=0;entryDy=0;exitX=0.5;exitY=1;exitDx=0;exitDy=0;" edge="1" parent="MaTm9JHjs4rxVad7Ua8J-1" source="MaTm9JHjs4rxVad7Ua8J-16" target="MaTm9JHjs4rxVad7Ua8J-11">
          <mxGeometry relative="1" as="geometry" />
        </mxCell>
        <mxCell id="MaTm9JHjs4rxVad7Ua8J-15" value="Redirecionamento" style="edgeLabel;html=1;align=center;verticalAlign=middle;resizable=0;points=[];" vertex="1" connectable="0" parent="MaTm9JHjs4rxVad7Ua8J-14">
          <mxGeometry x="-0.3385" y="4" relative="1" as="geometry">
            <mxPoint as="offset" />
          </mxGeometry>
        </mxCell>
        <mxCell id="MaTm9JHjs4rxVad7Ua8J-16" value="Link Anexado Email" style="rounded=1;whiteSpace=wrap;html=1;absoluteArcSize=1;arcSize=14;strokeWidth=2;fillColor=#dae8fc;strokeColor=#6c8ebf;" vertex="1" parent="MaTm9JHjs4rxVad7Ua8J-1">
          <mxGeometry x="50" y="90" width="70" height="60" as="geometry" />
        </mxCell>
        <mxCell id="MaTm9JHjs4rxVad7Ua8J-17" style="edgeStyle=orthogonalEdgeStyle;rounded=0;orthogonalLoop=1;jettySize=auto;html=1;entryX=0;entryY=0.5;entryDx=0;entryDy=0;entryPerimeter=0;" edge="1" parent="MaTm9JHjs4rxVad7Ua8J-1" source="MaTm9JHjs4rxVad7Ua8J-19" target="MaTm9JHjs4rxVad7Ua8J-22">
          <mxGeometry relative="1" as="geometry" />
        </mxCell>
        <mxCell id="MaTm9JHjs4rxVad7Ua8J-18" value="Alteração MySQL" style="edgeLabel;html=1;align=center;verticalAlign=middle;resizable=0;points=[];" vertex="1" connectable="0" parent="MaTm9JHjs4rxVad7Ua8J-17">
          <mxGeometry x="-0.2215" y="-4" relative="1" as="geometry">
            <mxPoint x="9" y="-4" as="offset" />
          </mxGeometry>
        </mxCell>
        <mxCell id="MaTm9JHjs4rxVad7Ua8J-19" value="Gerar Novo Código" style="rounded=1;whiteSpace=wrap;html=1;absoluteArcSize=1;arcSize=14;strokeWidth=2;fillColor=#dae8fc;strokeColor=#6c8ebf;" vertex="1" parent="MaTm9JHjs4rxVad7Ua8J-1">
          <mxGeometry x="430" y="247.5" width="70" height="60" as="geometry" />
        </mxCell>
        <mxCell id="MaTm9JHjs4rxVad7Ua8J-20" style="edgeStyle=orthogonalEdgeStyle;rounded=0;orthogonalLoop=1;jettySize=auto;html=1;startArrow=none;startFill=0;endArrow=classic;endFill=1;" edge="1" parent="MaTm9JHjs4rxVad7Ua8J-1" source="MaTm9JHjs4rxVad7Ua8J-22" target="MaTm9JHjs4rxVad7Ua8J-45">
          <mxGeometry relative="1" as="geometry" />
        </mxCell>
        <mxCell id="MaTm9JHjs4rxVad7Ua8J-21" value="Enviar Email" style="edgeLabel;html=1;align=center;verticalAlign=middle;resizable=0;points=[];" vertex="1" connectable="0" parent="MaTm9JHjs4rxVad7Ua8J-20">
          <mxGeometry x="-0.1216" relative="1" as="geometry">
            <mxPoint as="offset" />
          </mxGeometry>
        </mxCell>
        <mxCell id="MaTm9JHjs4rxVad7Ua8J-22" value="F" style="strokeWidth=2;html=1;shape=mxgraph.flowchart.start_2;whiteSpace=wrap;fillColor=#f8cecc;strokeColor=#b85450;" vertex="1" parent="MaTm9JHjs4rxVad7Ua8J-1">
          <mxGeometry x="630" y="252.5" width="50" height="50" as="geometry" />
        </mxCell>
        <mxCell id="MaTm9JHjs4rxVad7Ua8J-23" style="edgeStyle=orthogonalEdgeStyle;rounded=0;orthogonalLoop=1;jettySize=auto;html=1;entryX=1;entryY=0;entryDx=0;entryDy=0;" edge="1" parent="MaTm9JHjs4rxVad7Ua8J-1" source="MaTm9JHjs4rxVad7Ua8J-25" target="MaTm9JHjs4rxVad7Ua8J-11">
          <mxGeometry relative="1" as="geometry">
            <Array as="points">
              <mxPoint x="370" y="145" />
              <mxPoint x="370" y="245" />
            </Array>
          </mxGeometry>
        </mxCell>
        <mxCell id="MaTm9JHjs4rxVad7Ua8J-24" value="Focus na Página" style="edgeLabel;html=1;align=center;verticalAlign=middle;resizable=0;points=[];rotation=0;" vertex="1" connectable="0" parent="MaTm9JHjs4rxVad7Ua8J-23">
          <mxGeometry x="-0.3432" y="4" relative="1" as="geometry">
            <mxPoint x="-61" y="71" as="offset" />
          </mxGeometry>
        </mxCell>
        <mxCell id="MaTm9JHjs4rxVad7Ua8J-25" value="C" style="strokeWidth=2;html=1;shape=mxgraph.flowchart.start_2;whiteSpace=wrap;fillColor=#f8cecc;strokeColor=#b85450;" vertex="1" parent="MaTm9JHjs4rxVad7Ua8J-1">
          <mxGeometry x="540" y="120" width="50" height="50" as="geometry" />
        </mxCell>
        <mxCell id="MaTm9JHjs4rxVad7Ua8J-26" style="edgeStyle=orthogonalEdgeStyle;rounded=0;orthogonalLoop=1;jettySize=auto;html=1;" edge="1" parent="MaTm9JHjs4rxVad7Ua8J-1" source="MaTm9JHjs4rxVad7Ua8J-28" target="MaTm9JHjs4rxVad7Ua8J-31">
          <mxGeometry relative="1" as="geometry" />
        </mxCell>
        <mxCell id="MaTm9JHjs4rxVad7Ua8J-27" value="Requisição AJAX" style="edgeLabel;html=1;align=center;verticalAlign=middle;resizable=0;points=[];" vertex="1" connectable="0" parent="MaTm9JHjs4rxVad7Ua8J-26">
          <mxGeometry x="-0.2632" y="1" relative="1" as="geometry">
            <mxPoint x="-1" y="15" as="offset" />
          </mxGeometry>
        </mxCell>
        <mxCell id="MaTm9JHjs4rxVad7Ua8J-28" value="Formulário" style="shape=parallelogram;html=1;strokeWidth=2;perimeter=parallelogramPerimeter;whiteSpace=wrap;rounded=1;arcSize=12;size=0.23;shadow=0;glass=0;sketch=0;fillColor=#e1d5e7;fontSize=11;strokeColor=#9673a6;" vertex="1" parent="MaTm9JHjs4rxVad7Ua8J-1">
          <mxGeometry x="160" y="430" width="100" height="60" as="geometry" />
        </mxCell>
        <mxCell id="MaTm9JHjs4rxVad7Ua8J-29" style="edgeStyle=orthogonalEdgeStyle;rounded=0;orthogonalLoop=1;jettySize=auto;html=1;" edge="1" parent="MaTm9JHjs4rxVad7Ua8J-1" source="MaTm9JHjs4rxVad7Ua8J-31" target="MaTm9JHjs4rxVad7Ua8J-36">
          <mxGeometry relative="1" as="geometry" />
        </mxCell>
        <mxCell id="MaTm9JHjs4rxVad7Ua8J-30" value="Validação" style="edgeLabel;html=1;align=center;verticalAlign=middle;resizable=0;points=[];" vertex="1" connectable="0" parent="MaTm9JHjs4rxVad7Ua8J-29">
          <mxGeometry x="-0.1497" y="-2" relative="1" as="geometry">
            <mxPoint as="offset" />
          </mxGeometry>
        </mxCell>
        <mxCell id="MaTm9JHjs4rxVad7Ua8J-31" value="Validar Campos" style="rounded=1;whiteSpace=wrap;html=1;absoluteArcSize=1;arcSize=14;strokeWidth=2;fillColor=#dae8fc;strokeColor=#6c8ebf;" vertex="1" parent="MaTm9JHjs4rxVad7Ua8J-1">
          <mxGeometry x="175" y="585" width="70" height="60" as="geometry" />
        </mxCell>
        <mxCell id="MaTm9JHjs4rxVad7Ua8J-32" style="edgeStyle=orthogonalEdgeStyle;rounded=0;orthogonalLoop=1;jettySize=auto;html=1;entryX=1;entryY=1;entryDx=0;entryDy=0;exitX=0.5;exitY=0;exitDx=0;exitDy=0;exitPerimeter=0;" edge="1" parent="MaTm9JHjs4rxVad7Ua8J-1" source="MaTm9JHjs4rxVad7Ua8J-36" target="MaTm9JHjs4rxVad7Ua8J-11">
          <mxGeometry relative="1" as="geometry" />
        </mxCell>
        <mxCell id="MaTm9JHjs4rxVad7Ua8J-33" value="Não" style="edgeLabel;html=1;align=center;verticalAlign=middle;resizable=0;points=[];" vertex="1" connectable="0" parent="MaTm9JHjs4rxVad7Ua8J-32">
          <mxGeometry x="-0.1413" y="-1" relative="1" as="geometry">
            <mxPoint as="offset" />
          </mxGeometry>
        </mxCell>
        <mxCell id="MaTm9JHjs4rxVad7Ua8J-34" style="edgeStyle=orthogonalEdgeStyle;rounded=0;orthogonalLoop=1;jettySize=auto;html=1;entryX=0;entryY=0.5;entryDx=0;entryDy=0;entryPerimeter=0;" edge="1" parent="MaTm9JHjs4rxVad7Ua8J-1">
          <mxGeometry relative="1" as="geometry">
            <mxPoint x="461" y="480" as="sourcePoint" />
            <mxPoint x="601" y="480" as="targetPoint" />
          </mxGeometry>
        </mxCell>
        <mxCell id="MaTm9JHjs4rxVad7Ua8J-35" value="Sim&lt;br&gt;(Inserção MySQL)" style="edgeLabel;html=1;align=center;verticalAlign=middle;resizable=0;points=[];" vertex="1" connectable="0" parent="MaTm9JHjs4rxVad7Ua8J-34">
          <mxGeometry x="-0.2629" y="1" relative="1" as="geometry">
            <mxPoint x="17" y="1" as="offset" />
          </mxGeometry>
        </mxCell>
        <mxCell id="MaTm9JHjs4rxVad7Ua8J-36" value="Campos Válidos?" style="strokeWidth=2;html=1;shape=mxgraph.flowchart.decision;whiteSpace=wrap;fillColor=#fff2cc;strokeColor=#d6b656;" vertex="1" parent="MaTm9JHjs4rxVad7Ua8J-1">
          <mxGeometry x="365" y="440" width="95" height="80" as="geometry" />
        </mxCell>
        <mxCell id="MaTm9JHjs4rxVad7Ua8J-37" style="edgeStyle=orthogonalEdgeStyle;rounded=0;orthogonalLoop=1;jettySize=auto;html=1;" edge="1" parent="MaTm9JHjs4rxVad7Ua8J-1" source="MaTm9JHjs4rxVad7Ua8J-39" target="MaTm9JHjs4rxVad7Ua8J-42">
          <mxGeometry relative="1" as="geometry">
            <mxPoint x="625" y="610" as="targetPoint" />
            <Array as="points">
              <mxPoint x="625" y="690" />
              <mxPoint x="75" y="690" />
            </Array>
          </mxGeometry>
        </mxCell>
        <mxCell id="MaTm9JHjs4rxVad7Ua8J-38" value="Redirecionamento" style="edgeLabel;html=1;align=center;verticalAlign=middle;resizable=0;points=[];" vertex="1" connectable="0" parent="MaTm9JHjs4rxVad7Ua8J-37">
          <mxGeometry x="-0.261" y="-2" relative="1" as="geometry">
            <mxPoint x="-61" y="2" as="offset" />
          </mxGeometry>
        </mxCell>
        <mxCell id="MaTm9JHjs4rxVad7Ua8J-39" value="F" style="strokeWidth=2;html=1;shape=mxgraph.flowchart.start_2;whiteSpace=wrap;fillColor=#f8cecc;strokeColor=#b85450;" vertex="1" parent="MaTm9JHjs4rxVad7Ua8J-1">
          <mxGeometry x="600" y="455" width="50" height="50" as="geometry" />
        </mxCell>
        <mxCell id="MaTm9JHjs4rxVad7Ua8J-40" style="edgeStyle=orthogonalEdgeStyle;rounded=0;orthogonalLoop=1;jettySize=auto;html=1;entryX=0;entryY=0.75;entryDx=0;entryDy=0;startArrow=open;startFill=0;endArrow=none;endFill=0;" edge="1" parent="MaTm9JHjs4rxVad7Ua8J-1" source="MaTm9JHjs4rxVad7Ua8J-42" target="MaTm9JHjs4rxVad7Ua8J-11">
          <mxGeometry relative="1" as="geometry" />
        </mxCell>
        <mxCell id="MaTm9JHjs4rxVad7Ua8J-41" value="Redirecionamento" style="edgeLabel;html=1;align=center;verticalAlign=middle;resizable=0;points=[];" vertex="1" connectable="0" parent="MaTm9JHjs4rxVad7Ua8J-40">
          <mxGeometry x="0.1199" relative="1" as="geometry">
            <mxPoint x="5.5" y="8.5" as="offset" />
          </mxGeometry>
        </mxCell>
        <mxCell id="MaTm9JHjs4rxVad7Ua8J-42" value="A3" style="strokeWidth=2;html=1;shape=mxgraph.flowchart.start_2;whiteSpace=wrap;fillColor=#f8cecc;strokeColor=#b85450;" vertex="1" parent="MaTm9JHjs4rxVad7Ua8J-1">
          <mxGeometry x="50" y="350" width="50" height="50" as="geometry" />
        </mxCell>
        <mxCell id="MaTm9JHjs4rxVad7Ua8J-43" style="edgeStyle=orthogonalEdgeStyle;rounded=0;orthogonalLoop=1;jettySize=auto;html=1;startArrow=none;startFill=0;endArrow=classic;endFill=1;exitX=0.5;exitY=0;exitDx=0;exitDy=0;" edge="1" parent="MaTm9JHjs4rxVad7Ua8J-1" source="MaTm9JHjs4rxVad7Ua8J-45" target="MaTm9JHjs4rxVad7Ua8J-25">
          <mxGeometry relative="1" as="geometry" />
        </mxCell>
        <mxCell id="MaTm9JHjs4rxVad7Ua8J-44" value="Notificação" style="edgeLabel;html=1;align=center;verticalAlign=middle;resizable=0;points=[];" vertex="1" connectable="0" parent="MaTm9JHjs4rxVad7Ua8J-43">
          <mxGeometry x="0.3705" y="3" relative="1" as="geometry">
            <mxPoint x="20" y="-3" as="offset" />
          </mxGeometry>
        </mxCell>
        <mxCell id="MaTm9JHjs4rxVad7Ua8J-45" value="Validar Email" style="rounded=1;whiteSpace=wrap;html=1;absoluteArcSize=1;arcSize=14;strokeWidth=2;fillColor=#dae8fc;strokeColor=#6c8ebf;" vertex="1" parent="MaTm9JHjs4rxVad7Ua8J-1">
          <mxGeometry x="720" y="170" width="70" height="60" as="geometry" />
        </mxCell>
      </root>
    </mxGraphModel>
  </diagram>
</mxfile>
